/* XPM */
static char *_2904cf678ad47f8c4a26004cc2f1a693ArEqAsaAwCxwl65[] = {
/* columns rows colors chars-per-pixel */
"50 50 141 2 ",
"   c None",
".  c #030304",
"X  c #080605",
"o  c #05060A",
"O  c #06080B",
"+  c #09090A",
"@  c #1C1207",
"#  c #1E1308",
"$  c #060A13",
"%  c #080D17",
"&  c #070D1A",
"*  c #090F1C",
"=  c #100F12",
"-  c #09101E",
";  c #181311",
":  c #2C1B07",
">  c #271909",
",  c #291A09",
"<  c #311F0A",
"1  c #221C19",
"2  c #35210A",
"3  c #3A230A",
"4  c #382510",
"5  c #071021",
"6  c #0A1427",
"7  c #0B152A",
"8  c #0C182F",
"9  c #0D1933",
"0  c #0E1E3C",
"q  c #2F2D35",
"w  c #343137",
"e  c #44290B",
"r  c #4A2E0D",
"t  c #52320E",
"y  c #432F1C",
"u  c #4C3112",
"i  c #543410",
"p  c #5A3710",
"a  c #5C3912",
"s  c #573A1C",
"d  c #5B3D1D",
"f  c #653D0F",
"g  c #4D3723",
"h  c #4E3927",
"j  c #48372C",
"k  c #513821",
"l  c #79480F",
"z  c #6C4313",
"x  c #734612",
"c  c #7C4B13",
"v  c #0F2042",
"b  c #0E234A",
"n  c #102244",
"m  c #11254B",
"M  c #132751",
"N  c #142953",
"B  c #152D5C",
"V  c #152F60",
"C  c #163063",
"Z  c #1A3364",
"A  c #17346C",
"S  c #183268",
"D  c #173770",
"F  c #1B3772",
"G  c #1A3A75",
"H  c #1B3C7C",
"J  c #855215",
"K  c #8B5516",
"L  c #945916",
"P  c #975C18",
"I  c #A66416",
"U  c #A7651A",
"Y  c #AA671A",
"T  c #AF6A1A",
"R  c #B36D1B",
"E  c #BE721B",
"W  c #C3761C",
"Q  c #CB7A1C",
"!  c #D37F1D",
"~  c #D5801C",
"^  c #D8821E",
"/  c #DD851F",
"(  c #E68B20",
")  c #F19121",
"_  c #F99521",
"`  c #FA9621",
"'  c #F89522",
"]  c #F99622",
"[  c #FA9622",
"{  c #FB9722",
"}  c #FC9722",
"|  c #193D81",
" . c #1D3D80",
".. c #1D3E82",
"X. c #1E3F84",
"o. c #1D4184",
"O. c #1D4286",
"+. c #1D4185",
"@. c #1F4188",
"#. c #1F4289",
"$. c #1F468F",
"%. c #1E438A",
"&. c #1F4791",
"*. c #1F4894",
"=. c #1F4A98",
"-. c #214590",
";. c #214692",
":. c #214793",
">. c #204996",
",. c #224896",
"<. c #224997",
"1. c #204A97",
"2. c #214997",
"3. c #234998",
"4. c #234999",
"5. c #224A99",
"6. c #214A9A",
"7. c #214B9A",
"8. c #214B9B",
"9. c #224A9A",
"0. c #234A9A",
"q. c #224A9B",
"w. c #234A9B",
"e. c #234B9B",
"r. c #214C9A",
"t. c #214C9B",
"y. c #224B9C",
"u. c #234B9C",
"i. c #244B9D",
"p. c #214C9C",
"a. c #214D9C",
"s. c #214D9D",
"d. c #214D9E",
"f. c #224D9E",
"g. c #224E9E",
"h. c #224E9F",
"j. c #244C9D",
"k. c #244C9E",
"l. c #244C9F",
"z. c #224B9B",
"x. c #244DA0",
/* pixels */
"                                                                                                    ",
"                                              . X X .                                               ",
"                                              t Y Y a o O O O O O O O O O O O O                     ",
"                                              x ` U w A A A A A A A A A A A A N O                   ",
"                                              x I q | s.s.s.s.s.s.s.s.s.s.s.s.$.N O                 ",
"                                              > w H s.t.t.s.D 9 B t.t.t.t.t.t.s.D O                 ",
"                                              . b s.t.t.t.s.B . 0 t.t.t.t.t.t.s.A O                 ",
"                                                m s.t.t.t.s.o.C G t.t.t.t.t.t.s.A O                 ",
"                                            . . m s.t.t.t.t.s.s.s.t.t.t.t.t.t.s.A O                 ",
"                                        . p r 7 H s.t.t.t.t.t.t.t.t.t.1.1.t.t.s.A O                 ",
"                                      a K W c b s.t.t.t.t.t.t.t.t.t.s.B m 8.s.s.A O                 ",
"                                    . c ` ` c b s.t.t.t.t.t.t.t.t.t.s.G m v v n 9 o                 ",
"                                      r T ` c b s.t.t.t.t.t.t.t.t.t.t.s.o.B B 0 .                   ",
"                                        u z 2 b s.t.t.t.t.t.t.t.s.s.H n n m m 0                     ",
"                                            . m s.t.t.t.t.t.s.H m m 8 .                             ",
"                                              m s.t.t.t.t.t.s.B .                                   ",
"                                          o . m s.t.t.t.t.t.s.B .                                   ",
"                                        u x 3 b s.t.t.t.t.t.s.B .                                   ",
"                                    i x R } c b s.t.t.t.t.t.s.B .                                   ",
"                                    i W ` E j A s.t.t.t.t.t.s.B .                                   ",
"                                      i W l b s.t.t.t.t.t.s.s.V .                                   ",
"                                        a e b s.t.t.t.t.t.t.s.H 6 .                                 ",
"                                        o 5 A s.t.t.t.t.t.t.t.s.V .                                 ",
"                                        . m s.t.t.t.t.t.t.t.t.s.G 6 .                               ",
"                                  u p a : m s.t.t.t.t.t.t.t.t.t.s.C .                               ",
"                                o J ` W g S s.t.t.t.t.t.t.t.t.t.s.G 9                               ",
"                                o J Q h S 8.8.t.t.t.t.t.t.t.t.t.t.s.S +                             ",
"                                  z r m 8.8.8.8.8.8.8.8.t.t.t.t.t.s.S +                             ",
"                                  + * S u.....8...H 8.8.8.t.t.t.t.s.S O                             ",
"                                  X M 8.u.m m k.M n 8.8.8.8.8.t.8.u.C O                             ",
"                                  . M u.i.m m k.M n 8.8.8.8.8.8.8.u.C O                             ",
"                            4 e @ & S u.i.m m x.M n 8.8.8.8.8.8.8.i.C o                             ",
"                        . > U ) f M 8.8.u.m 9 F 0 n 8.8.8.8.8.8.8.i.C o                             ",
"                          x ^ ! k S u.8.u.m $ 7 % n 8.8.8.8.8.8.8.i.C o                             ",
"                            c t M 8.u.u.i.B B 1.B B 8.8.8.8.0.0.0.i.C +                             ",
"                              . B x.#.G G F F #.8.1.8.8.0.0.0.0.0.i.C +                             ",
"                              . n H 0 * 6 6 6 m #.8.8.8.8.8.0.0.0.k.S +                             ",
"                    . # < 2   . . o $ B ;.;.;.m m i.8.8.8.8.0.0.8.;.N +                             ",
"                    . K ( W g 5 O $ B 1.8.8.i.m 0 #.0.8.8.8.0.0.i.S O                               ",
"                    . P / s C *.0 0 #.8.8.8.i.M . m 0.0.8.8.0.0.;.M .                               ",
"                    . c d C 8.s.n . B u.8.8.u.M . n 8.8.8.8.8.;.N o .                               ",
"                    . = C 8.s.s.N o M u.8.8.u.M . n 8.8.8.u.*.N $ $ .                               ",
"        . @ > >     % B 1.s.t.t.*.0 N u.8.8.u.M o M u.8.*.o.N $ n B .                               ",
"        X L / E y & C 1.s.t.t.s.s.n M u.8.8.u.m 9 H X.o.N & * v *.C .                               ",
"        X L ~ s C %.1.s.s.s.s.$.o.0 M u.8.8.u.M o % % % $ v #.*.s.C .                               ",
"        . ; 1 Z =.*.%.#.#.#.%.m % o M u.8.8.u.M .       0 *.s.s.s.C .                               ",
"      + . M G o.#.0 % & & & &     . m #.#.#.#.n .       0 %.#.#.$.B .                               ",
"  + . . . % - * * O                 $ * * * * $ .       O * * * * $ . +                             ",
"                                                                                                    ",
"                                                                                                    "
};
