/* XPM */
static char *_5cdd186f0424c56d582470c595d887bxEO1n1FPLCRDUYtm[] = {
/* columns rows colors chars-per-pixel */
"64 64 205 2 ",
"   c None",
".  c #030202",
"X  c #0B0B06",
"o  c #03050B",
"O  c #060A0D",
"+  c #0C0D0D",
"@  c #0A0706",
"#  c #110F0F",
"$  c #0E130C",
"%  c #1B140A",
"&  c #151B0E",
"*  c #17140A",
"=  c #060B13",
"-  c #090D12",
";  c #070D1A",
":  c #080F1C",
">  c #020612",
",  c #0D1111",
"<  c #09101F",
"1  c #161D12",
"2  c #161B17",
"3  c #23160A",
"4  c #2C1B0A",
"5  c #211406",
"6  c #331F0B",
"7  c #261C13",
"8  c #1A2314",
"9  c #192313",
"0  c #3C250D",
"q  c #222E1A",
"w  c #2B2B16",
"e  c #362515",
"r  c #24321B",
"t  c #29361D",
"y  c #2A371B",
"u  c #35361A",
"i  c #0A1223",
"p  c #0A142A",
"a  c #0A152A",
"s  c #0D1934",
"d  c #0D1B3A",
"f  c #0C1733",
"g  c #101F3D",
"h  c #131621",
"j  c #172637",
"k  c #2C3C21",
"l  c #273620",
"z  c #373626",
"x  c #3A2C21",
"c  c #4A2C0D",
"v  c #52310E",
"b  c #462C11",
"n  c #4D3816",
"m  c #593914",
"M  c #663E12",
"N  c #4B3725",
"B  c #2E431E",
"V  c #31491F",
"C  c #324623",
"Z  c #344924",
"A  c #3B4E26",
"S  c #3B4927",
"D  c #3B5427",
"F  c #3E552B",
"G  c #3E5B2C",
"H  c #354A35",
"J  c #354E2A",
"K  c #3F6129",
"L  c #6E4414",
"P  c #774813",
"I  c #474823",
"U  c #41522F",
"Y  c #425B2E",
"T  c #455B33",
"R  c #425431",
"E  c #5C5028",
"W  c #645725",
"Q  c #765620",
"!  c #45612E",
"~  c #476C2C",
"^  c #486A2D",
"/  c #4A6432",
"(  c #4D6D35",
")  c #4C6938",
"_  c #526C34",
"`  c #52693B",
"'  c #557537",
"]  c #54743A",
"[  c #597C3D",
"{  c #58783D",
"}  c #636E3D",
"|  c #0E1E40",
" . c #0E2247",
".. c #102143",
"X. c #11244A",
"o. c #13284F",
"O. c #142954",
"+. c #152C5B",
"@. c #172B53",
"#. c #1E355D",
"$. c #213258",
"%. c #162F60",
"&. c #163163",
"*. c #193364",
"=. c #1A366C",
"-. c #17356C",
";. c #1B3974",
":. c #1B3C7A",
">. c #1B3772",
",. c #5A7C42",
"<. c #5A7643",
"1. c #637C48",
"2. c #885315",
"3. c #955916",
"4. c #98621E",
"5. c #A3631A",
"6. c #AB681A",
"7. c #B46E1B",
"8. c #B86F1B",
"9. c #BE731C",
"0. c #C2751D",
"q. c #CA7A1D",
"w. c #C5781F",
"e. c #D07E1F",
"r. c #5C853C",
"t. c #63973F",
"y. c #5E8342",
"u. c #618641",
"i. c #648B43",
"p. c #66864C",
"a. c #6A934B",
"s. c #689545",
"d. c #729C4C",
"f. c #719C51",
"g. c #719454",
"h. c #6F9650",
"j. c #71AF47",
"k. c #74A14D",
"l. c #72AF48",
"z. c #78A44F",
"x. c #75B14B",
"c. c #79B54E",
"v. c #76A453",
"b. c #7AAB55",
"n. c #7BB453",
"m. c #7EB951",
"M. c #7FB259",
"N. c #6AA244",
"B. c #DB841F",
"V. c #D38020",
"C. c #DC8520",
"Z. c #E58A20",
"A. c #EA8D21",
"S. c #EF9022",
"D. c #F49322",
"F. c #FA9622",
"G. c #FE9923",
"H. c #81B456",
"J. c #84BD55",
"K. c #82B759",
"L. c #84B95B",
"P. c #89BE5D",
"I. c #87B561",
"U. c #87BA60",
"Y. c #8ABC63",
"T. c #8EBD69",
"R. c #8EB768",
"E. c #90BE6B",
"W. c #86AB63",
"Q. c #86C055",
"!. c #8DC35D",
"~. c #8AC458",
"^. c #90C75D",
"/. c #92CA5C",
"(. c #8DC162",
"). c #8FC068",
"_. c #91C464",
"`. c #95CB61",
"'. c #99CE66",
"]. c #93C26A",
"[. c #97C96A",
"{. c #9ACC6C",
"}. c #9ED06D",
"|. c #98D063",
" X c #9DCC72",
".X c #99C770",
"XX c #A0CF74",
"oX c #A3D276",
"OX c #A2D275",
"+X c #A6D479",
"@X c #A7D57A",
"#X c #A6D479",
"$X c #A8D67A",
"%X c #1E3E81",
"&X c #1D4184",
"*X c #1E458C",
"=X c #1F4790",
"-X c #1F4893",
";X c #21448C",
":X c #214691",
">X c #214996",
",X c #214C9B",
"<X c #214D9D",
"1X c #224B9B",
"2X c #224EA0",
/* pixels */
"/././.!.L.L.L.`.`.`.}.+X+X+X+X+X+X_.l.l.x.{.+X+X XE.E.E.P.L.L.!.`.|.`.m.x.x.c.`.`.`.P.L.K.K.L.L.L.!././.!.L.L.L.L.L.L.L./././.  ",
"/././.!.L.L.L.`.`.`.}.+X+X+X+X+X+X_.l.l.x.{.+X+X XE.E.E.P.L.b.( ( ( ( ! K t.m.`.`.`.!.L.L.L.P.P.P.!./././.L.L.L.L.L.L.L./././.  ",
"/././.!.L.L.L.`.`.`.}.+X+X+X+X+X+X_.j.l.x.{.+X+X XE.E.T.P.P.a.+ 3 6 6 4 @ G s.k.z.k.a.a.a.a.a.a.a.d.k.k.z.K.L.L.L.L.K.L./././.  ",
"/././.!.P.P.P./././.{.+X+X+X}.{.}.(.n.n.n.[.}.}.{..X.X.XY.P.a.* 7.Z.Z.0.3 O , , , , , , , , , , , , , , l b.K.L.P.!.!.!./././.  ",
"/././.!.Y.Y.Y.^././.'.+X+XoX`././.!.L.L.L.`.`.`.'.+X+X+XY.P.a.* 0.F.8.e =.:.:.:.:.:.:.:.:.:.:.:.:.:.:.:.*.l k.P.!././././././.  ",
"/././.!.Y.Y.Y.^././.'.+X+XoX`././.!.L.L.L.`.`.`.'.+X+X+XY.P.a.* 0.6.N +.-X<X<X<X<X<X2X<X<X<X<X<X<X<X<X<X*X@.H a.!././././././.  ",
"/././.!.Y.Y.Y.!././.'.oXOXOX`././.!.P.P.P._.`.`.'.OXOXOXY.P.a.* 2.N X.,X,X,X,X,X>X:.>.:.>X,X,X,X,X,X,X,X<X=X: ( !././././././.  ",
"/././.!.Y.Y.Y.P.L.L.P.Y.Y.Y. XOXOX{.T.T.T.P.P.P.P.Y.Y.Y.Y.Y.f.1 X @.>X,X,X,X,X,X>Xp . f >X,X,X,X,X,X,X,X<X=X: ' /././.^.P.L.L.  ",
"/././.!.Y.Y.Y.P.L.L.L.L.L.P.XX+X+X XE.E.T.P.K.K.L.L.L.L.Y.Y.I.h.8 +.<X,X,X,X,X,X>Xp . p >X,X,X,X,X,X,X,X1X=X: ' /././.!.L.L.L.  ",
"/././.!.Y.Y.Y.P.L.L.L.L.K.P.XX+X+X XE.E.T.P.L.L.L.L.L.L.Y.Y.T.I.q O.<X,X,X,X,X,X>X=.+.=.>X,X,X,X,X,X,X,X1X=X: ' /././.!.L.L.L.  ",
"Q.Q.Q.P.U.U.U.L.K.K.Y._._._.OX+X+X XE.E.T.P.L.L.P.P.!.!.(.v.,.<.1 O.<X,X,X,X,X,X,X<X<X<X,X,X,X,X,X,X,X,X1X=X: [ |././.!.L.L.L.  ",
"l.l.l.n.L.L.K.K.K.K.].+X+X+X+X+X+X XE.E.T.P.L.L.P.`.`.H.H._ % @ = &.<X,X,X,X,X,X,X,X,X,X,X,X,X<X<X,X,X,X<X=X: 1.}././.!.L.L.L.  ",
"l.l.l.n.L.L.K.K.L.L.].+X+X+X+X+X+X XE.E.T.P.L.L.P.`.H.q & L 6.+ -.>X,X,X,X,X,X,X,X,X,X,X,X,X,X*X*X>X,X,X<X=X: 1.}././.!.L.L.L.  ",
"x.x.x.n.P.P.K.L.L.K._.+X+X+X+X+X+X XT.T.T.P.L.L.!.d.I 4.5.q.9.# :.<X,X,X,X,X,X,X,X,X,X,X,X,X,XX.p =X<X<X<X-X< 1.}././.!.L.L.L.  ",
"~.~.~.!.T.T.Y.n.x.x.L.].].].`.`.`._.P.P.P.!.!.!./.r.5 C.F.F.9.# :.<X,X,X,X,X,X,X,X,X,X,X,X,X,X%.g O.+.+.+.O.= <.].Y.Y.(.!.!.!.  ",
"/././._.E.E.T.x.j.j.n.Y.Y.Y.^././.!.K.K.L.!./././.a.u 7.Z.F.9.# :.<X,X,X,X,X,X,X,X,X,X,X,X,X,X<X&Xp < < ; @ 8 p.T.Y.Y.Y./././.  ",
"/././._.E.E.T.x.j.j.n.Y.Y.Y.^././.!.K.K.L.!./././.`.b.w 6.S.7.# :.<X,X,X,X,X,X,X,X,X,X,X,X,X>X>X>X*X*X*X=.2 g.T.T.Y.Y.Y./././.  ",
"/././._._._.(.m.c.c.J.Y.Y.(.!.!.!.P.n.n.H.!.!.!.^.`.^.d.I 0 4 O :.<X,X,X,X,X,X,X,X,X<X<X<X<XO.i i a a i j p.I.T.T.(.(.(.!.!.!.  ",
"/./././././././././././././.L.K.L.n.n.n.n.K.L.L.P.`.`.`.[ G Z + :.<X,X,X,X,X,X,X,X<X>.X.X.X.; 9 Y Y Y Y _ K.P.L.!.`.`.`.L.L.L.  ",
"/./././././././././././././.L.K.L.n.n.n.n.K.L.L.P.`.`.`.P.P.a., :.<X,X,X,X,X,X,X,X<XX.X r r q / P.P.P.P.P.L.L.L.!.`.`.`.L.L.L.  ",
"/./././././././././././././.L.K.L.n.n.n.n.K.L.L.P.`.`.`.K.b.i., :.<X,X,X,X,X,X,X,X<XX.r b.M.M.K.K.L.L.L.L.L.L.L.!.`.`.`.L.L.L.  ",
"OXOXOX'./././.}.OXOX[.Y.(.Y.P.K.L.K.K.K.H.n.x.x.P.OXOX XR 8 1 O :.<X,X,X,X,X,X,X,X<XX.t L.T.{. X.X`.!.!.!.!.!.!./.`.`.`.^.!.!.  ",
"+X+X+X{./././.OX+X+X{.Y.Y.Y.P.L.L.L.L.L.L.x.j.j.!.W.T T Q 2.M + :.<X,X,X,X,X,X,X,X<XX.t I.].+X+X+X'.`.`.`././././.`.`.`.`.`.`.  ",
"+X+X+X{./././.OX+X+X{.Y.Y.Y.P.L.L.L.L.L.L.x.j.j.d.} c c 0.G.0.# :.<X,X,X,X,X,X,X,X<XX.t I.].+X+X+X'.`.`.`././././.`.`.`.`.`.`.  ",
"OXOXOX'.!.!.!.}.OXOX[.Y.Y.Y.P.P.L.L.L.L.L.n.m.m.G n V.A.D.A.5.< :.<X,X,X,X,X,X,X,X<XX.t I.(. XXXXX'.`.`./././././.`._._._._./.  ",
"/././.Q.n.n.m.^./././././././././.!.L.L.P. XoXoXT._ 0 C.F.3.h :.>X,X,X,X,X,X,X,X,X<XX.r M.P.Y.Y.Y.^./././.`.`.`.!.P.L.L.L.L.L.  ",
"/././.J.n.n.n.!./././././././././.!.L.L.P. X+X+X Xv.] m q.2.i >X<X,X,X,X,X,X,X,X,X<XX.$ Z v.Y.Y.Y.!./././.`.`.`.!.L.L.L.K.L.L.  ",
"/././.J.n.n.n.!./././././././././.!.L.L.P. X+X+X{.P.b.F Q v i -X<X,X,X,X,X,X,X,X,X<X=.p $ f.Y.Y.Y.!./././.`.`.`.!.L.L.L.K.K.L.  ",
"/././.!.!.!.!./././.!.P.P.!./././.!.L.L.P.(._._._.!.!.!.k o d >X,X,X,X,X,X,X,X,X,X,X<X=.$ u.I.T.T.Y.P.P.P.!.!.!._.[.{.[.P.L.L.  ",
"/./././.`.`.`./././.!.K.L.L.`.`.`.!.L.L.L.L.K.K.P.`.`.^.y d =X,X,X,X,X,X,X,X,X,X,X,X<X>.O $ ,.].E.U.L.K.L.L.L.L.[.+X+XXXP.L.L.  ",
"/./././.`.`.`./././.!.K.L.L.`.`.`.!.L.L.L.K.L.P.( k k k $ X.<X,X,X,X,X,X,X,X,X,X,X,X<X*X*.= <.].E.Y.K.K.L.L.L.L.[.+X+XXXP.L.L.  ",
"^.^.^./.`./.`./.`.`.!.L.L.L.`.`.`.!.P.P.P.L.M.{ W L L L 5  .<X,X,X,X,X,X,X,X,X,X,X,X,X<X*X; { ).T.P.K.L.L.L.L.L.[.OXOX XP.L.L.  ",
"L.L.L.!./././.OXoX+X[.L.L.L.`.`.`.`.`.`.`.P.b.8 3.F.S.0.x +.<X<X<X,X<X,X,X,X,X,X,X,X,X<X=Xd G s.x.n.L.L.L.L.K.K.Y.T.T.Y.^././.  ",
"L.L.L.!./././.OX+X+X[.L.L.L.`.`.`.`.`.`.`.P.b.8 3.D.w.7 =.>X<X<X<X<X,X,X,X,X,X,X,X,X,X,X,X>Xd V l.n.L.L.L.L.L.L.U.Y.Y.Y./././.  ",
"L.L.L.!./././.OX+X+X[.K.L.L.`.`.`.`.`.`.`.P.b.8 3.7.e =.:X>X>X,X,X,X,X,X,X,X,X<X,X,X,X,X,X,Xd B l.n.L.L.L.L.L.L.U.Y.Y.Y./././.  ",
"Y.Y.Y.P.!.!.!.OX+X+X{.!.!.!.!.!.!.!.!.!.!.!.L.[ W c = ;X1X>X1X>X>X<X<X>X>X,X,X<X,X,X,X,X,X,Xd Z J.L.L.L.P.P.P.P.P.(.(.(.!.!.!.  ",
"E.E.E.Y.L.L.P.OX+X+X}./././.L.L.L.L.L.L.L.!././.F o g ;X>X&X;.>X>X%X:.>X>X>X<X<X<X<X,X,X,X>Xd D `.P.L.L.P.Y.Y.Y.!././.^.Y.Y.Y.  ",
"E.E.E.Y.L.L.P.OX+X+X}./././.L.L.L.L.L.L.L.!././.F f >X>X1XO.i :X>X..s >X1X>X>X,X<X,X,X,X,X>Xd A `.P.L.L.P.Y.Y.Y.!././.^.Y.Y.Y.  ",
"].].].T.L.L.P. XOXOX'././.^.L.L.L.L.L.L.L.!././.D s >X>X1XO.i :X>X..p >X1X1X1X>X>X1X1X>X>X>Xd A `.P.L.L.P.T.T.T._././.^.Y.Y.Y.  ",
"OXOXOX{.`.`.`.P.P.P.P.L.L.L.L.L.L.P././.i.C C Z & s >X>X1XO.i :X>X..p >X1X1X1X1X>X>X>X>X>X>Xd A /./.`.`.`.OXOXOX'././.^.P.P.P.  ",
"+X+X+X}.`.`.`.P.L.L.K.K.K.K.L.L.L.H.i.u.W v c X < +.>X>X1XO.i :X1X..p >X1X1X1X1X>X>X1X1X1X1Xd A /./.`.`.'.+X+X+X'././.!.L.L.L.  ",
"+X+X+X{.`.`.`.P.L.L.K.K.K.K.L.L.P.d.$ % 2.D.C.4 +.1X>X1X1XO.: :.;Xs p >X1X1X1X1X>X>X1X1X1X1Xd A /./.`.`.'.+X+X+X'././.!.L.L.L.  ",
"{.{.{.`.`.`.`.Y.Y.Y.P.K.K.L.P.!.!.k.& 3.Z.D.B.4 +.1X>X1X1XO.@ = = o f >X1X1X1X1X>X>X>X1X1X1Xd A '.`._._._.}.}.}.`././.^.P.P.P.  ",
"L.L.L.!.`.`.`.].E.E.Y.L.L.L.!././.J.y.n 5.q.n $.;X1X>X>X1XO.= &.=.p p >X1X1X1X1X>X>X>X>X1X1Xd U +X[.Y.Y.Y.`.`.`./././.^.Y.Y.Y.  ",
"L.L.L.!.`.`.`.].E.E.Y.L.L.L.!././.!.K.( W M O %X1X1X1X1X1X>.O.1X<X*.+.1X1X1X1X1X1X1X>X>X>X>Xd U +X[.Y.Y.Y.`.`.`./././.^.Y.Y.Y.  ",
"L.L.L.!.`.`.`.].E.E.Y.L.L.L.!././.!.L.P.] $ O :.1X:X:.:.:.:.:.:.>X1X1X1X1X1X1X1X1X>X>X>X>X>Xd U oX[.Y.Y.Y.`.`.`./././.^.Y.Y.Y.  ",
"L.L.L.n.c.c.m. XOXOX'.!.!.!.P.K.M.P.].].].[ - :.>X*.O = = = = : :.1X>X>X1X1X1X1X1X1X>X>X1X1Xd Z Y.!.^.^./.`.`.`.(.Y.Y.P.c.x.x.  ",
"L.K.K.n.j.j.x. X+X+X}./././.L.Y 8 q r q p.s.O i p ; = =.;.;.;.>.s *.1X>X1X1X1X1X1X1X>X>X1X1Xd C L.!./././.`.`.`.(.Y.Y.P.x.l.l.  ",
"L.L.L.n.j.j.x. X+X+X}./././.L.k 4 P P P W Z . . . ; O.:X1X1X1X:X< O.<X>X>X>X>X>X>X>X>X1X>X+.H y.L.!./././.`.`.`.(.Y.Y.P.x.l.l.  ",
"L.L.L.n.x.x.n.[.{.{.[._._._.P.B m F.D.q.E a i o ; o.1X1X>X>X1X:Xi g %X>X>X>X1X>X>X>X>X1X;X; ] P.L.!././.`.'.'.'.(.L.P.K.x.x.x.  ",
"L.L.L.L.L.L.L.L.L.L.Y.E.E.E.^.C m D.B.b O.>X&X: O.:X>X1X>X>X>X:Xi . s >X1X1X1X1X>X>X>X>X&X; ] L.K.!.`.`.'.+X+X+X(.n.n.n.K.K.K.  ",
"L.L.L.L.L.L.L.L.L.L.Y.E.E.E.^.C m e.0 #.*X<X*X< = X.>X1X>X>X>X:Xi . s >X1X1X1X1X>X>X1X:.i o ] L.K.!.`.`.'.+X+X+X(.n.n.n.K.K.K.  ",
"L.L.L.L.L.L.L.P.P.P.Y.].].E.^.Z 3 n @.*X<X<X*X: . s 1X1X>X1X1X:Xi . s >X1X1X1X1X,X<X=.p . . ] L.K.!.`.`.'.oX+X+X(.n.n.n.K.K.K.  ",
"!.!.!.!.Y.Y.Y.f.[ [ ,.,.a.Y.{.S > ..-X<X>X<X>XX.= s 1X1X>X1X1X:Xi . s >X1X1X>X<X,X:.s O p o ( c.x.P.].]._.'.'.'.P.K.K.n.x.x.x.  ",
"/././.!.Y.Y.T.( @ % % % S v.R.H  .>X,X,X,X,X,X>Xg s >X>X>X>X1X:Xi o g 1X1X1X>X&X&Xi o d &X; ~ x.l.P.E.E.]./././.P.L.L.K.x.l.l.  ",
"/././.!.Y.Y.Y.) 4 w.V.V.4.1 2 #.=X,X,X,X,X,X,X,Xg s >X>X>X>X1X:Xi X.;X1X1X1X&.= = @ X.*X*X; ~ x.l.P.E.E.]./././.P.L.L.K.x.l.l.  ",
"/././._.].].].) 6 A.F.3.x &.&.&X<X,X,X,X,X<X<X<Xd s >X>X>X>X>X:Xi : s s s s < = +.&.&X<X*X; ~ x.l.P.T.T.T./././.P.L.L.K.x.x.x.  ",
"/././.'.+X+X+X<.% 2.3.N +.,X<X<X<X<X<X<X<X*X+.+.i s >X>X>X>X>X:Xi r F D D & ; o.>X<X<X<X*X; ~ x.l.n.P.L.P./././.P.L.L.L.L.L.L.  ",
"/././.{.+X+XE./ o ; ; %.<X>X&X%X&X&X&X&X&X*.9 9 X s >X>X>X>X>X:Xi { |.`.`.Z | <X,X,X,X<X*X; ~ x.l.n.K.L.P./././.P.L.L.L.L.L.L.  ",
"/././.'.XXXXU X < :.&X*X-X&Xi - - - - - - r s.N.B s >X>X>X>X>X*X< ' `.`.`.Z d >X>X>X>X>X&X; ~ l.l.n.K.K.P./././.P.L.L.L.L.L.L.  ",
"/././.d.k k $ . o a p p p i o F u.u.s.s.s.r.j.x.Z o a a a a a i o 1 / ^./.C > a a a a p i o & / Q.P.Y.Y.(.{.}.}.(.L.L.P.Y.Y.Y.  ",
"/././.k.D D D ! / / Y Y Y Y T d.P.!./././.c.l.l.r./ / / / / / / T T ,.!./.u./ ` ` ` T Y Y Y ! i./._.E.E.].+X+X+X_.L.L.P.T.T.E.  ",
"/././.J.x.x.x./././.!.P.P.P.P.L.L.P./././.c.l.l.m.`.`.`.`.`.`.`.T.Y.Y.^././.'.$X$X$X(.P.P.P./././._.E.E.].+X+X+X_.L.L.P.T.T.T.  ",
"/././.J.l.l.x.!././.!.L.L.L.L.L.L.P./././.c.l.l.m.`.`.`.`.`.`._.Y.Y.Y.^././.'.+X+X+X(.L.L.P./././._.E.E.].+X+X+X_.L.L.P.T.T.T.  "
};
