/* XPM */
static char *_c3826f90cf440b5aa66a7e50089d41cqusT8C7BWaq7qJrJ[] = {
/* columns rows colors chars-per-pixel */
"64 64 201 2 ",
"   c #020202",
".  c #080807",
"X  c #090A06",
"o  c #03050A",
"O  c #06080D",
"+  c #0A0B0A",
"@  c #140C06",
"#  c #0F130B",
"$  c #1B1007",
"%  c #11140C",
"&  c #1A180B",
"*  c #040711",
"=  c #070B14",
"-  c #090D14",
";  c #070D1A",
":  c #080E1C",
">  c #0D1211",
",  c #09101F",
"<  c #101612",
"1  c #161C12",
"2  c #181E15",
"3  c #23170A",
"4  c #2A1A0A",
"5  c #331E0B",
"6  c #271D15",
"7  c #1B2315",
"8  c #1A2616",
"9  c #34200B",
"0  c #39220C",
"q  c #242C18",
"w  c #3C2A12",
"e  c #263917",
"r  c #26321A",
"t  c #2B351E",
"y  c #263919",
"u  c #2B3C1E",
"i  c #343A1E",
"p  c #090F20",
"a  c #091225",
"s  c #0A142A",
"d  c #0D182D",
"f  c #0C1733",
"g  c #0D1935",
"h  c #0E1D3C",
"j  c #111E37",
"k  c #101F3D",
"l  c #172737",
"z  c #263823",
"x  c #2C3C21",
"c  c #303E24",
"v  c #263C3E",
"b  c #462A0D",
"n  c #4B2E0E",
"m  c #483318",
"M  c #503110",
"N  c #573815",
"B  c #653E15",
"V  c #503A27",
"C  c #2D411F",
"Z  c #344724",
"A  c #354925",
"S  c #3B4C2A",
"D  c #3B5526",
"F  c #3B532A",
"G  c #3E5B2A",
"H  c #4F451C",
"J  c #6C4212",
"K  c #734614",
"L  c #7A4A14",
"P  c #425B2E",
"I  c #595929",
"U  c #455B34",
"Y  c #495D38",
"T  c #754C21",
"R  c #695625",
"E  c #46632F",
"W  c #49632F",
"Q  c #4A6331",
"!  c #4E6D36",
"~  c #4B6639",
"^  c #556A36",
"/  c #52683C",
"(  c #4F7338",
")  c #54743B",
"_  c #55773A",
"`  c #597B3D",
"'  c #0F1F41",
"]  c #0E2044",
"[  c #112244",
"{  c #12254D",
"}  c #182A4E",
"|  c #102650",
" . c #162D52",
".. c #142954",
"X. c #142D5D",
"o. c #263447",
"O. c #202F50",
"+. c #213259",
"@. c #163164",
"#. c #183166",
"$. c #19346C",
"%. c #1A3670",
"&. c #1A3974",
"*. c #1B3C7B",
"=. c #4E6A42",
"-. c #597342",
";. c #5D7D45",
":. c #687C46",
">. c #834F15",
",. c #885114",
"<. c #86581C",
"1. c #935814",
"2. c #9B641D",
"3. c #A7661A",
"4. c #B76E1A",
"5. c #BD721D",
"6. c #C9791E",
"7. c #D07D1D",
"8. c #5C8A3C",
"9. c #628A3E",
"0. c #60923E",
"q. c #5D8343",
"w. c #618642",
"e. c #618943",
"r. c #658C4A",
"t. c #699245",
"y. c #689945",
"u. c #6A9349",
"i. c #739E4C",
"p. c #729C52",
"a. c #6EA846",
"s. c #71AE47",
"d. c #75A24C",
"f. c #79A74F",
"g. c #72AF48",
"h. c #76B14C",
"j. c #79B54E",
"k. c #7EBA4F",
"l. c #74A251",
"z. c #7BAC55",
"x. c #7BA759",
"c. c #7BB452",
"v. c #7FBA53",
"b. c #7FB259",
"n. c #DA831F",
"m. c #D48020",
"M. c #DC8520",
"N. c #E28920",
"B. c #EA8D21",
"V. c #EF9021",
"C. c #F49321",
"Z. c #FA9622",
"A. c #FD9822",
"S. c #80AF59",
"D. c #82B455",
"F. c #83BC55",
"G. c #82B759",
"H. c #84B95B",
"J. c #8ABA5A",
"K. c #89BE5C",
"L. c #8BB767",
"P. c #87BA60",
"I. c #8ABC63",
"U. c #8EBD69",
"Y. c #90BE6B",
"T. c #86C056",
"R. c #8BC558",
"E. c #8DC35D",
"W. c #90C75E",
"Q. c #92CA5C",
"!. c #8DC162",
"~. c #91C563",
"^. c #95CB61",
"/. c #98CE65",
"(. c #92C26A",
"). c #99C76D",
"_. c #96C96B",
"`. c #9BCC6C",
"'. c #98D063",
"]. c #9FD16E",
"[. c #98C170",
"{. c #9DCC72",
"}. c #9FD070",
"|. c #A0CF75",
" X c #A2D274",
".X c #A6D479",
"XX c #A9D77B",
"oX c #1D3E81",
"OX c #1D4183",
"+X c #1E458B",
"@X c #1F4790",
"#X c #1F4894",
"$X c #204186",
"%X c #20438A",
"&X c #214691",
"*X c #214996",
"=X c #224B9B",
"-X c #214C9A",
";X c #214C9B",
":X c #214D9D",
">X c #234EA0",
/* pixels */
"Q.Q.Q.E.H.H.H.~.^.^.`..X.X.X.X.X.X_.h.g.g._..X.X|.Y.Y.Y.I.H.H.K.^.'.'.T.h.h.h.W.^.^.E.H.H.H.H.H.H.K.Q.Q.Q.K.H.H.H.H.H.H.E.Q.Q.Q.",
"Q.Q.Q.E.H.H.H.~.^.^.`..X.X.X.X.X.X_.h.g.g._..X.X|.Y.Y.Y.I.H.b.) ! ! ! E G 8.j.Q.^.^.E.H.H.H.K.K.K.E.Q.Q.Q.K.H.H.H.H.H.H.E.Q.Q.Q.",
"Q.Q.Q.E.H.H.H.~.^.^.`..X.X.X.X.X.X_.g.g.g._..X.X|.Y.Y.Y.I.H.z.7 $ 5 5 9 @ u 0.i.f.f.i.u.u.u.u.u.u.u.d.d.d.b.H.H.H.H.H.H.E.Q.Q.Q.",
"Q.Q.Q.E.K.K.K.Q.Q.Q.`..X.X.X].`.].~.c.c.c.~.].].`.{.{.{.U.H.z.7 ,.B.N.m.n O > > > > > > > > > > > > > > < q.H.H.H.E.E.E.E.Q.Q.Q.",
"Q.Q.Q.E.I.I.I.W.Q.Q./..X.X.X^.Q.Q.E.H.H.H.E.^.^./..X.X.X~.H.z.7 1.Z.M.n O.*.*.*.*.*.*.*.*.*.&.&.*.*.*.*.&.l ) K.K.Q.Q.Q.Q.Q.Q.Q.",
"Q.Q.Q.E.I.I.I.W.Q.Q./..X.X.X^.Q.Q.E.H.H.H.E.^.^./..X.X.X~.H.z.7 1.6.B } OX:X:X:X:X:X:X:X:X:X:X:X:X:X:X:X-X@.v ! H.Q.Q.Q.Q.Q.Q.Q.",
"Q.Q.Q.E.I.I.I.W.Q.Q./. X X X/.Q.Q.E.K.K.K.E.^.~./. X X.X~.H.z.7 J T h +X:X-X-X-X-XOX&.&.*X-X-X-X-X-X-X-X-X:X| q H.Q.Q.Q.Q.Q.Q.Q.",
"Q.Q.Q.E.I.I.I.K.H.H.K.I.I.I.`. X X{.U.U.U.I.K.K.K.I.I.I.I.I.S.r . j *X-X-X-X-X-X:X{   = oX:X-X-X-X-X-X-X-X:X{ r K.Q.Q.Q.E.H.H.H.",
"Q.Q.Q.E.I.I.I.H.H.H.H.H.H.K.{..X.X|.Y.Y.Y.P.H.H.H.H.H.H.P.I.I.x.c g -X-X-X-X-X-X:X{   O *.:X-X-X-X-X-X-X-X:X{ r E.Q.Q.Q.K.H.H.H.",
"Q.Q.Q.E.I.I.I.K.H.H.H.H.H.H.{..X.X|.Y.Y.Y.P.H.H.H.H.H.H.P.I.U.!.S g -X-X-X-X-X-X:X*.X.@.@X:X-X-X-X-X-X-X-X:X{ r E.Q.Q.Q.K.H.H.H.",
"T.T.T.K.P.P.P.K.H.H.K.~.~.~.|..X.X|.Y.Y.Y.P.H.H.H.K.E.E.!.S.;.;.r g -X-X-X-X-X-X-X:X:X:X-X-X-X-X-X-X-X-X-X:X{ r W.Q.Q.Q.K.H.H.H.",
"g.g.g.c.H.H.H.H.H.H.!..X.X.X.X.X.X|.Y.Y.Y.P.H.H.K.^.^.G.D.9.3 . O [ -X-X-X-X-X-X-X-X-X-X-X-X-X-X:X-X-X-X-X:X{ t ).Q.Q.Q.K.H.H.H.",
"g.g.g.c.H.H.H.H.H.H.!..X.X.X.X.X.X|.Y.Y.Y.P.H.H.K.^.E.Z % m 5.3 ..@X-X-X-X-X-X-X-X-X-X-X-X-X-X*X+X*X-X-X-X:X{ t ).Q.Q.Q.K.H.H.H.",
"h.h.h.c.K.H.H.H.H.H.!..X.X.X.X.X.X{.Y.U.U.P.H.H.K.S.S <.3.5.M.4 X.:X-X-X-X-X-X-X-X-X-X-X-X-X:X%.= $.>X:X:X>X| t ).Q.Q.Q.K.H.H.H.",
"R.R.R.E.U.U.I.c.h.h.G.(.(.(.^.^.^.~.K.K.K.E.E.E.Q.d.% 5.A.C.M.4 X.:X-X-X-X:X-X-X-X-X-X-X-X-X:X*.h { X.X.X.X.s r L.I.I.I.E.E.E.E.",
"Q.Q.Q.~.Y.Y.U.h.s.s.c.I.I.I.W.Q.Q.E.H.H.H.E.Q.Q.Q.z.t 2.n.C.M.4 X.:X-X-X-X-X-X-X-X-X-X-X-X-X-X-X-X[ : , : o # S L.I.I.I.E.Q.Q.Q.",
"Q.Q.Q.~.Y.Y.U.h.s.s.c.I.I.I.W.Q.Q.E.H.H.H.E.Q.Q.Q.~.J.i >.B.n.4 X.:X-X-X-X-X-X-X-X-X-X-X-X-X-X*X*X+X+X+XOXd U L.U.I.I.I.E.Q.Q.Q.",
"Q.Q.Q.~.~.~.!.v.j.j.F.I.I.I.E.E.E.E.G.b.b.E.E.E.E.^.^.z.I 0 9 . X.:X-X-X-X-X-X-X-X-X-X:X:X:X&.s a a s s s =.x.U.U.!.!.!.E.E.E.E.",
"Q.Q.Q.Q.Q.Q.Q.Q.Q.Q.Q.Q.Q.Q.H.H.H.H.c.c.c.H.H.H.K.^.^./.t.G F # X.:X-X-X-X-X-X-X-X:XOX..{ { f . F P P P P d.K.H.K.^.^.^.E.H.H.H.",
"Q.Q.Q.Q.Q.Q.Q.Q.Q.Q.Q.Q.Q.Q.H.H.H.H.c.c.c.H.H.H.K.^.^.^.E.H.z.8 X.:X-X-X-X-X-X-X-X:X&.+ 8 r r Z z.K.K.K.K.H.H.H.K.^.^.^.K.H.H.H.",
"Q.Q.Q.Q.Q.Q.Q.Q.Q.Q.Q.Q.Q.Q.H.H.H.G.c.c.c.b.H.H.K.^.^.^.H.z.l.7 X.:X-X-X-X-X-X-X-X:X&.> u.b.b.G.H.H.H.H.H.H.H.H.K.^.^.^.E.H.H.H.",
" X X X/.Q.Q.Q.]. X X_.!.!.I.K.H.H.H.b.b.H.c.h.h.F.}. X X-.7 7 . X.:X-X-X-X-X-X-X-X:X&.> p.I._.{.{._.E.E.E.E.E.E.E.^.^.^.~.E.E.E.",
".X.X.X`.Q.Q.Q. X.X.X{.I.I.I.K.H.H.H.H.H.H.h.s.s.v.Y.~ U R ,.L $ X.:X-X-X-X:X-X-X-X:X&.> p.U.|..X.X X^.^.^.Q.Q.Q.Q.^.^.^.^.^.^.^.",
".X.X.X`.Q.Q.Q. X.X.X{.I.I.I.K.H.H.H.H.H.H.h.s.s.y.:.M b 3.Z.N.4 X.:X-X-X-X-X-X-X-X:X&.> p.U.|..X.X X^.^.^.Q.Q.Q.Q.^.^.^.^.^.^.^.",
" X X X/.E.E.E.]. X X).I.I.I.K.K.K.H.H.H.H.b.c.v.( w 6.B.C.B.6.6 @.:X-X-X-X-X-X-X-X:X&.> p.I.{.|.|.`.^.^.^.Q.Q.Q.Q.~.~.~.~.~.~.Q.",
"Q.Q.Q.E.c.c.c.E.Q.Q.Q.Q.Q.Q.Q.Q.Q.E.H.H.H.)..X.X(.w.9 5.Z.4.6 %.#X-X-X-X-X-X-X:X-X:X&.> u.H.I.I.I.!.Q.Q.Q.Q.^.^.W.H.H.H.H.H.H.H.",
"Q.Q.Q.T.c.c.c.E.Q.Q.Q.Q.Q.Q.Q.Q.Q.E.H.H.H.{..X.X Xz.` H 3.4.- oX:X-X-X-X-X-X-X-X-X:X&.. r w.I.I.I.!.Q.Q.Q.Q.^.^.W.H.H.H.H.H.H.H.",
"Q.Q.Q.T.c.c.c.E.Q.Q.Q.Q.Q.Q.Q.Q.Q.E.H.H.H.{..X.X{.K.H.~ R J O *.:X-X-X-X-X-X-X-X-X:XOXh o ! I.I.I.!.Q.Q.Q.Q.^.^.W.H.H.H.H.H.H.H.",
"Q.Q.Q.E.E.E.E.Q.Q.Q.E.K.K.E.Q.Q.Q.E.H.H.H.!.~.~.~.E.E.~.U o a OX:X-X-X-X-X-X-X-X-X-X:X+X: P x.U.U.U.K.K.K.E.E.E.!.).).).I.H.H.H.",
"Q.Q.Q.Q.^.^.^.Q.Q.Q.E.H.H.H.~.^.^.W.H.H.H.H.H.H.H.W.~.^.Q a +X-X:X-X-X-X-X-X-X-X-X-X:X+Xa . S U.Y.U.H.H.H.H.H.H.I..X.X.X~.H.H.H.",
"Q.Q.Q.Q.^.^.^.Q.Q.Q.E.H.H.H.W.^.^.W.H.H.H.H.H.K.q.x x x 1 s *X-X-X-X-X-X-X-X-X-X-X-X-X*X&.s x U.Y.U.H.H.H.H.H.H.I..X.X.X~.H.H.H.",
"W.W.W.Q.^.^.^.Q.^.^.E.H.H.H.W.^.^.W.K.K.K.H.H.q.I J J K 9 s *X-X-X-X-X-X-X-X-X-X-X-X-X-X:X' x I.U.I.H.H.H.H.H.H.I.|. X X~.H.H.H.",
"H.H.H.E.Q.Q.Q. X.X.X).H.H.H.W.^.^.^.~.~.~.K.H.z J Z.C.7.N ] -X-X-X:X:X:X-X-X-X-X-X-X-X-X-X..z 8.g.c.H.H.H.H.H.H.K.U.U.U.E.Q.Q.Q.",
"H.H.H.E.Q.Q.Q. X.X.X).H.H.H.W.^.^.^.^.^.^.K.H.x B C.M.w  .*X-X-X-X-X:X:X-X-X-X-X-X-X-X-X-X-X@.7 y.h.H.H.H.H.H.H.K.I.I.I.E.Q.Q.Q.",
"H.H.H.E.Q.Q.Q. X.X.X).H.H.H.~.^.^.^.^.^.^.K.H.z J 7.w +.%X-X-X-X-X-X-X:X-X-X-X-X-X-X-X-X-X:X#.< y.h.H.H.H.H.H.H.K.I.I.I.E.Q.Q.Q.",
"I.I.I.K.E.E.E. X.X.X`.E.E.E.E.E.E.E.E.E.E.E.K.w.I N . &.=X=X=X-X-X:X:X=X-X-X-X-X-X-X-X-X-X:X@.1 f.F.H.H.H.K.K.K.K.!.!.!.E.E.E.E.",
"Y.Y.Y.I.H.H.K.|..X.X].Q.Q.Q.K.H.H.H.H.H.H.E.Q.Q.) o d oX-X%X%.&X-X+X&.*X=X-X-X-X-X-X-X-X-X:X@.1 D.~.H.H.H.I.I.I.I.Q.Q.Q.!.I.I.I.",
"Y.Y.Y.I.H.H.K.|..X.X].Q.Q.Q.K.H.H.H.H.H.H.E.Q.Q.) : %X-X-X%.= *.=X@.; %X=X=X-X-X-X-X-X-X-X:X#.1 D.~.H.H.H.I.I.I.I.Q.Q.Q.!.I.I.I.",
"(.(.(.U.K.H.K.{. X X`.Q.Q.Q.K.H.H.H.H.H.H.E.Q.Q.) p &X-X=X%.= *.=X@.= %X-X-X-X-X-X-X-X-X-X=X#.1 D.~.H.K.K.I.U.U.!.Q.Q.Q.!.I.I.I.",
" X X X`.~.~.~.K.K.K.K.H.H.H.H.H.H.K.Q.Q.i.Z Z A q : %X-X=X%.= *.=X@.= %X-X-X-X-X-X-X-X-X-X=X#.1 D.Q.~.~.~.`. X X`.Q.Q.Q.K.K.K.K.",
".X.X.X].^.^.^.K.H.H.H.H.H.H.H.H.H.H.t.w.^ M n $ ; { &X-X=X%.- oX>X#.= %X=X=X=X=X-X-X=X=X=X=X#.1 D.Q.^.^.^. X.X.X XQ.Q.Q.K.H.H.H.",
".X.X.X].^.^.^.K.H.H.H.H.H.H.H.H.H.z.7 @ J C.B.n ] =X-X-X=X%.= $.%X..= %X=X=X=X=X-X-X=X=X=X=X#.1 D.Q.^.^.^. X.X.X XQ.Q.Q.K.H.H.H.",
").).).^.^.^.^.I.I.I.K.H.H.H.K.E.E.z.7 >.N.C.B.b ] =X-X-X=X%.o - = O = %X=X=X=X=X-X-X-X=X=X=X#.1 J./.~.~.~.`.].].`.Q.Q.Q.K.K.K.K.",
"H.H.H.E.^.^.^.(.Y.Y.I.H.H.H.E.Q.Q.E.e.H ,.n.N o.oX=X-X-X=X$.O ..$.[ = %X=X=X=X=X-X-X-X=X=X=X#.2 Y.{.I.I.I.~.^.^.^.Q.Q.Q.I.I.I.I.",
"H.H.H.E.^.^.^.(.Y.Y.I.H.H.H.E.Q.Q.E.H.) I K + $.=X=X=X=X=XoX{ %X>X*.{ &X=X=X=X=X-X-X-X-X=X=X#.2 Y.{.I.I.I.~.^.^.^.Q.Q.Q.!.I.I.I.",
"H.H.H.E.~.~.~.(.Y.Y.U.H.H.H.E.Q.Q.E.H.K.w.1 o $.=X&X*.*.*.*.*.*.%X-X-X-X=X=X=X=X=X-X-X-X=X=X#.2 Y.{.I.I.I.~.^.^.^.Q.Q.Q.!.I.I.I.",
"H.H.H.b.j.j.c.). X X`.E.E.E.K.H.D.K.).).).u.# #.*X*.= = = = = - X.-X-X-X=X=X=X=X=X=X-X-X=X=X#.1 x.!.W.W.W.^.^.^.~.I.I.I.b.h.h.h.",
"H.H.H.c.s.s.h.{..X.X].Q.Q.Q.K.! 8 8 r r -.l.# : s : o X.&.&.&.&.[ { -X-X=X=X=X=X=X=X-X=X=X=X#.1 l.K.Q.Q.Q.Q.^.^.~.I.I.I.c.s.g.g.",
"H.H.H.c.s.s.h.{..X.X].Q.Q.Q.K.F 3 K K L R F .     O { %X=X=X=X=Xk g -X-X-X-X-X-X-X-X-X=X=X$.o.! z.K.Q.Q.Q.Q.^.^.~.I.I.I.c.s.g.g.",
"H.H.H.b.h.h.c._.).)._.~.~.~.E.F b V.C.7.T s s O = k &X=X-X-X=X=Xk s &.*X-X-X=X-X-X-X-X-X=Xk u G.H.K.Q.Q.Q./.`.`.^.K.H.H.c.h.h.h.",
"H.H.H.H.H.H.H.H.H.H.I.Y.Y.Y.~.G b B.N.N k *X&Xd k %X-X-X-X-X-X=Xk   ; %X=X=X=X=X-X-X-X-X&Xh u H.H.K.^.^.^. X.X.X`.c.c.c.b.H.H.H.",
"H.H.H.H.H.H.H.H.H.H.I.Y.Y.Y.~.P b M.n O.+X-X-Xf O g &X-X-X-X-X-Xk   = %X=X=X=X=X-X-X-X&Xg O u H.H.K.^.^.^. X.X.X`.c.c.c.b.H.H.H.",
"H.H.H.H.H.H.H.K.K.K.I.(.(.Y.~.P $ N } OX:X-X-Xd   : %X-X=X=X=X=Xk   = %X=X=X=X=X-X:XOXk o   u G.H.K.^.^.^. X.X.X`.c.c.c.b.H.H.H.",
"E.E.E.E.I.I.I.l.` ` ` ;.r.P.`.Y o h +X:X-X-X-X..; p &X-X=X=X=X=Xk   = %X=X=X=X=X:XOX{ o s = y g.h.b.(.(.(.^././.~.H.H.H.c.h.h.h.",
"Q.Q.Q.E.I.I.U.) . & & & i p.L.Y h *X-X-X-X-X-X-X..: &X=X=X=X=X=Xk   a %X=X=X*X+X+X[   , OX' e s.s.c.Y.Y.Y.~.Q.Q.E.H.H.H.h.s.g.g.",
"Q.Q.Q.E.I.I.I.) 3 5.m.m.3.7 1 O.+X-X-X-X-X-X-X:X..: &X=X=X=X=X=Xh d $X*X=X=X*.: = o a OX-X' e s.s.b.Y.Y.Y.~.Q.Q.E.H.H.H.h.s.g.g.",
"Q.Q.Q.~.(.(.(.) 4 N.A.3.m @.@.OX:X-X-X-X-X-X:X>X.., &X-X-X-X-X-Xk = g g f g s   { @.&.-X:X' e s.g.c.U.U.U.W.Q.Q.E.H.H.H.c.h.h.h.",
"Q.Q.Q.`..X.X.X;.$ >.1.V | -X:X:X:X:X:X:X:X#X@.X.f , &X-X-X-X-X-Xh 1 D D D r O h OX:X:X-X:X' e s.g.h.H.H.K.E.Q.Q.E.H.H.H.H.H.H.H.",
"Q.Q.Q.`..X.X[./ o ; ; ..:X-XOXOXOXOXOXOXOX&.8 7 # a &X-X-X-X-X-Xh A ^.^.'.) a @X:X-X-X-X:X' e s.g.h.H.H.H.E.Q.Q.E.H.H.H.H.H.H.H.",
"Q.Q.Q.`.|.|.U + ; *.+X+X#X+Xs - - - - - - 8 0.a.G : +X*X*X*X*X*Xh A W.^./.) , +X*X*X*X*X*Xh e a.g.h.H.H.H.E.Q.Q.E.H.H.H.H.H.H.H.",
"Q.Q.Q.i.c x %   o a s s s a o A e.e.t.t.t.8.a.h.E o a s s s s s * # A G.^.) o a s s s s s = + C j.E.I.I.U._.].]._.K.H.H.P.I.I.I.",
"Q.Q.Q.d.D D D E Q W P P P P P u.K.E.Q.Q.Q.k.g.h.8.Q Q Q Q Q Q Q U U ~ H.Q.d.Q / / / Q P P P E ! J.~.Y.Y.Y.|..X.X{.K.H.H.I.U.Y.Y.",
"Q.Q.Q.F.h.h.h.R.Q.Q.E.K.K.K.K.K.H.K.Q.Q.Q.j.g.g.j.^.^.^.'.^.^.^.U.U.I.!.Q.Q.^..XXXXX).K.K.K.Q.Q.Q.~.Y.Y.Y.{..X.X{.K.H.H.I.Y.Y.Y.",
"Q.Q.Q.F.g.g.h.E.Q.Q.E.H.H.H.H.H.H.K.Q.Q.Q.j.g.g.j.~.^.^.^.^.^.~.I.I.I.E.Q.Q.Q..X.X.X_.H.H.H.E.Q.Q.~.Y.Y.Y.{..X.X{.K.H.H.I.U.Y.Y."
};
