/* XPM */
static char *_e8dbc990e1d41ea85c58e6e7991fa81w2hanM11kWiVvV1L[] = {
/* columns rows colors chars-per-pixel */
"71 50 239 2 ",
"   c #000605",
".  c #1B1508",
"X  c #050718",
"o  c #151717",
"O  c #00111F",
"+  c #271A0F",
"@  c #292604",
"#  c #2B2616",
"$  c #36281B",
"%  c #33310A",
"&  c #00022C",
"*  c #01092C",
"=  c #030726",
"-  c #0B182A",
";  c #141B26",
":  c #000234",
">  c #000D3C",
",  c #040F34",
"<  c #041834",
"1  c #01133B",
"2  c #0D153B",
"3  c #081B3B",
"4  c #22103A",
"5  c #192227",
"6  c #182837",
"7  c #08263B",
"8  c #312D23",
"9  c #36372C",
"0  c #293138",
"q  c #2C2F34",
"w  c #483715",
"e  c #533B17",
"r  c #4A3000",
"t  c #653F12",
"y  c #4B3923",
"u  c #6D4718",
"i  c #594327",
"p  c #45453B",
"a  c #574F35",
"s  c #665436",
"d  c #6A4F32",
"f  c #5C603D",
"g  c #000A49",
"h  c #001642",
"j  c #051849",
"k  c #151E48",
"l  c #021854",
"z  c #131E53",
"x  c #092348",
"c  c #112445",
"v  c #192848",
"b  c #1D3048",
"n  c #0B245C",
"m  c #1C2D51",
"M  c #142858",
"N  c #1C3555",
"B  c #073552",
"V  c #262F48",
"C  c #253347",
"Z  c #343846",
"A  c #282D56",
"S  c #273559",
"D  c #363F5C",
"F  c #131C67",
"G  c #172C63",
"H  c #163264",
"J  c #1A3668",
"K  c #172C74",
"L  c #183573",
"P  c #193B77",
"I  c #082C6C",
"U  c #283A68",
"Y  c #37356B",
"T  c #233B74",
"R  c #233C7B",
"E  c #243877",
"W  c #39366C",
"Q  c #364155",
"!  c #184978",
"~  c #2B446D",
"^  c #334667",
"/  c #2B4A7D",
"(  c #274278",
")  c #364779",
"_  c #35537C",
"`  c #2C537C",
"'  c #4F4C53",
"]  c #665A4A",
"[  c #5B6358",
"{  c #7A715B",
"}  c #72654F",
"|  c #525B69",
" . c #46557D",
".. c #4E5B6C",
"X. c #586575",
"o. c #7A6E6B",
"O. c #797A7C",
"+. c #646A70",
"@. c #86765A",
"#. c #8E7047",
"$. c #8F7A61",
"%. c #7A8577",
"&. c #A38456",
"*. c #928875",
"=. c #929174",
"-. c #BA986D",
";. c #AD8C62",
":. c #9EA77C",
">. c #B6A877",
",. c #CCA778",
"<. c #0D3987",
"1. c #163B8B",
"2. c #193E98",
"3. c #243D84",
"4. c #2C3E8C",
"5. c #453C88",
"6. c #1C4483",
"7. c #1C4B8E",
"8. c #19458A",
"9. c #1C4294",
"0. c #1C4B95",
"q. c #1D4B9A",
"w. c #18459A",
"e. c #134792",
"r. c #2B4485",
"t. c #2D4C84",
"y. c #244B8C",
"u. c #2D4B8D",
"i. c #254688",
"p. c #324B89",
"a. c #374987",
"s. c #2A5688",
"d. c #365688",
"f. c #234594",
"g. c #254A92",
"h. c #2A4C94",
"j. c #25449B",
"k. c #224C9B",
"l. c #2C4B9C",
"z. c #2A4497",
"x. c #324D94",
"c. c #334C9D",
"v. c #364998",
"b. c #23539D",
"n. c #2C5498",
"m. c #395698",
"M. c #39608A",
"N. c #1C4CA3",
"B. c #1B4AA8",
"V. c #1D51A7",
"C. c #1A50B2",
"Z. c #234BA2",
"A. c #2B4CA4",
"S. c #274AA7",
"D. c #2352A4",
"F. c #2856A7",
"G. c #3555A4",
"H. c #2452B4",
"J. c #445686",
"K. c #435795",
"L. c #484A8D",
"P. c #5F6984",
"I. c #777B89",
"U. c #6B7D91",
"Y. c #435CAC",
"T. c #4A61A5",
"R. c #7B818C",
"E. c #7E8285",
"W. c #83858A",
"Q. c #848599",
"!. c #9B9C9E",
"~. c #93938B",
"^. c #B29E8E",
"/. c #9DA597",
"(. c #B0AA8D",
"). c #8C97AA",
"_. c #8A9DB4",
"`. c #989CA5",
"'. c #B5B5B3",
"]. c #ABACAD",
"[. c #CAB78E",
"{. c #C4BCA5",
"}. c #C7C4BB",
"|. c #D9DDBC",
" X c #9EAAC2",
".X c #A2B6CE",
"XX c #CBCCD6",
"oX c #CCD2D6",
"OX c #D6DCD8",
"+X c #D0CFCC",
"@X c #E3DCCB",
"#X c #E4CCD9",
"$X c #D9E2DA",
"%X c #F4EBDB",
"&X c #FDF8DA",
"*X c #EAEBD1",
"=X c #CBD9ED",
"-X c #D8DDE6",
";X c #D5CFE9",
":X c #E2D7E5",
">X c #DCE5E7",
",X c #DAE5F8",
"<X c #E3E8EC",
"1X c #EDECED",
"2X c #E7E7E4",
"3X c #F3EDE4",
"4X c #F4EFEC",
"5X c #F8E7E8",
"6X c #EEF0EE",
"7X c #EEF6E9",
"8X c #F4F3E3",
"9X c #F7F9E5",
"0X c #F6F5EE",
"qX c #FAF6ED",
"wX c #F4F9EC",
"eX c #FFFCED",
"rX c #FCF9E5",
"tX c #E3EBF5",
"yX c #EDEDF2",
"uX c #E5ECFB",
"iX c #EBECFC",
"pX c #E2E5FA",
"aX c #F3EEF2",
"sX c #F3EBFB",
"dX c #FEEEFD",
"fX c #F9EEF2",
"gX c #ECF1F4",
"hX c #EDF5FE",
"jX c #EBFBFB",
"kX c #EBFAF4",
"lX c #F6F6F6",
"zX c #FAF5F4",
"xX c #F3F9F3",
"cX c #FDFBF4",
"vX c #F5F6FA",
"bX c #FAF4FA",
"nX c #F3FBFD",
"mX c #F9FEFF",
"MX c #FDFDFD",
/* pixels */
"lXlXlXlXlXlXlXlXlXlXlXlXlXlXlXlXlXlXlXlXlXlXlXlXlXlXlXlXlXlXlXvXvXvXlXwX9X9XqXzXbXbXbXbXvX0X9X9XxXvXvXvXvXzXlXxXwXwXwXwXlXvXbXbXvXlXlXlXlXlXlX",
"lXlXlXlXlXlXlXlXlXlXlXlXlXlXlXlXlXlXlXlXlXlXlXlXlXlXlXlXlXlXlXvXvXvXlXxX0X0XxXvXvXbXbXvXvXxXwX0XxXvXvXvXvXzXzXxXwXwXwXxXlXvXbXbXvXlXlXlXlXlXlX",
"lXlXlXlXlXlXlXlXlXlXlXlXlXlXlXlXlXlXlXlXlXlXlXlXlXlXlXlXlXlXlXlXwXxXlXvXvXvXvXvXlXxX0X0XxXlXvXvXlXlXlXvXbXzXzXzXxXwXxXxXlXvXbXbXvXlXlXlXlXlXlX",
"lXlXlXlXlXlXlXlXlXlXlXlXlXlXlXlXlXlXlXlXlXlXlXlXlXlXlXlXlXlXlXxXwXwXvXvXvXvXvXvXlXwXwXwXxXlXvXvXlXlXlXzXzXzXzXzXxXxXxXxXlXlXvXvXvXlXlXlXlXlXlX",
"lXlXlXlXlXlXlXlXlXlXlXlXlXlXlXlXlXlXlXlXlXlXlXlXlXlXlXlXlXlXlXlXlXlXvXvXvXvXvXvXxXxXxXxXlXlXvXvXlXxXxXzXzXzXzXzXlXlXxXxXlXlXzXzXlXlXlXlXlXlXlX",
"lXlXlXlXlXlXlXlXlXlXlXlXlXlXlXlXlXlXlXlXlXlXlXlXlXlXlXlXlXlXlXlXlXlXvXvXvXvXvXlXxXxXxXxXlXvXvXvXlXxXxXzXzXzXzXzXvXvXvXlXlXlXzXzXlXlXlXlXlXlXlX",
"lXlXlXlXlXlXlXlXlXlXlXlXlXlXlXlXlXlXlXlXlXlXlXlXlXlXlXlXlXlXlXlXxXxXlXvXvXvXvXlXwXwXwXwXxXvXvXvXvXxXxXzXzXzXzXvXvXvXvXvXlXxXzXzXlXlXlXlXlXlXlX",
"lXlXlXlXlXlXlXlXlXlXlXlXlXlXlXlXlXlXlXlXlXlXlXlXlXlXlXlXlXlXlXxXqXqXzXvXvXvXvXlXwXwXwXxXlXvXvXvXvXlXlXzXzXzXzXvXvXvXvXvXlXxXqXqXlXlXlXlXlXlXlX",
"lXlXlXlXlXlXlXlXlXlXlXlXlXlXlXlXlXlXlXlXlXlXlXlXlXlXlXlXlXlXlXlXzXzXcX4XMXcXMXxXxXmXmXvXvXmXmXvXvXnXvX1XzXMX4XbXvXvXvXvXlXxXqX0XlXlXlXlXlXlXlX",
"lXlXlXlXlXlXlXlXlXlXlXlXlXlXlXlXlXlXlXlXlXlXlXlXlXlXlXlXlXlXlXlXfXMX}.8 9 9 9 OXuX,X,XpXpX,XtXuXpXtXmXmX0X0XMXbXvXvXvXvXvXxXzXxXlXlXlXlXlXlXlX",
"lXlXlXlXlXlXlXlXlXlXlXlXlXlXlXlXlXlXlXlXlXlXlXlXlXlXlXlXlXlXlXvXbXbX].# /.%.o ; v k z M c 3 5 6 6 ).vXmXlX0XzXzXvXvXvXvXvXlXzXxXlXlXlXlXlXlXlX",
"lXlXlXlXlXlXlXlXlXlXlXlXlXlXlXlXlXlXlXlXlXlXlXlXlXlXlXlXlXlXlXvXbXbX'.p /.5 Z Q ^ ) a.r.( ~ ^ ^ S 3 ).hXgXMX2XcXlXvXvXvXvXlXzXxXlXlXlXlXlXlXlX",
"lXlXlXlXlXlXlXlXlXlXlXlXlXlXlXlXlXlXlXlXlXlXlXlXlXlXlXlXlXlXlXxX3XcX'.X Q S  .) ) P J ( p.p.t.t.d.J.* =XmX2XcXqXxXvXvXvXvXvXzXxXlXlXlXlXlXlXlX",
"lXlXlXlXlXlXlXlXlXlXlXlXlXlXlXlXlXlXlXlXlXlXlXlXlXlXlXlXlXlXlXxXeX*X2X| 2 J.T p.m.I l L n.h.f.h.R T c ,X>XxXcX8XxXlXvXvXvXvXzXzXlXlXlXlXlXlXlX",
"lXlXlXlXlXlXlXlXlXlXlXlXlXlXlXlXlXlXlXlXlXlXlXlXlXlXlXlXlXlXlXxXwXwXmX).1 K.r.g.G.<.I <.k.N.q.k.h.t.h ,XmXxX$XcXxXlXvXvXvXvXzXzXlXlXlXlXlXlXlX",
"lXlXlXlXlXlXlXlXlXlXlXlXlXlXlXlXvXlXlXlXlXlXlXlXlXlXlXlXlXlXlX0X8X}.q - N r.n.f.9.F.F.Z.N.D.D.7.i._ 3 =XjXnXxX0XxXlXvXvXvXvXvXlXlXlXlXlXlXlXlX",
"lXlXlXlXlXlXlXlXlXlXlXlXlXlXlXvXvXvXlXlXxXxXxXxXzXlXMX1XMX4XxX@Xe i ] X ) g.q.D.k.f.Z.j.F.1.6.s._ ^ < ,XnXvX6XlXzXzXzXlXlXlXlXlXlXlXlXlXlXlXlX",
"lXlXlXlXlXlXlXlXlXlXlXlXlXlXlXvXvXvXlXxXxXwX0XxXMX1XlXMX1XlXMXa #.-.$.5 _ h.w.w.0.9.f.A.A.1.j B N b - =XhXgXMXxXzXzXzXzXlXlXlXlXlXlXlXlXlXlXlX",
"lXlXlXlXlXlXlXlXlXlXlXlXlXlXlXvXvXvXlXxXxX0XxXxXlXxXvXmXaXxXMX*.u ,.$.o ) n.N.N.D.8.l.z.2.G.! B 7 X ..uXmXmX1XzXzXzXzXzXlXlXlXvXlXlXlXlXlXlXlX",
"lXlXlXlXlXlXlXlXlXlXlXlXlXlXlXvXvXvXlXxXxXxXxXxXaXvXMXyXMXaX0XeX;.t + ; K.f.B.N.7.i.u.r.T.n 3 7 6 X.uXnXtXmXlXzXzXzXzXxXlXlXvXvXlXlXlXlXlXlXlX",
"lXlXlXlXlXlXlXlXlXlXlXlXlXlXlXvXvXvXzXxXzXzXxXlXmXlXmXyXvXlX1XrX&X[.O.3 h.B.B.V.y.d.U 2 & = `.].).tXmXhXvX1XMX0XzXzXxXxXlXlXvXvXlXlXlXlXlXlXlX",
"lXlXlXlXlXlXlXlXlXlXlXlXlXlXlXlXvXvXzXzXzXzXlXlXvXmXvXmXvXlXMX8X&X*X'.1 9.H.C.V.y.d.* Q.pX:XbXMXmXnX<XyXMX1X4XMXzXxXxXxXlXxXvXvXlXlXlXlXlXlXlX",
"lXlXlXlXlXlXlXlXlXlXlXlXlXlXlXlXbXvXzXzXxXxXxXvXgXmXvXvXvXvXlX@X[.e # 2 G.S.B.e.6.M.c  XiXsXMX1XvXgXMX6X6XcX2XMXxXxXxXxXlXvXvXxXlXlXlXlXlXlXlX",
"lXlXlXlXlXlXlXlXlXlXlXlXlXlXlXlXvXvXzXzXxXxXlXlXMXyXMXyX1XMX}.] r -.o.2 v.S.2.F.y.` < _.mXvXaXlXMXgXxXMX0XMXlXxXxXxXlXlXvXvXvXvXvXlXlXlXlXlXlX",
"lXlXlXlXlXlXlXlXlXlXlXlXlXlXlXlXbXvXzXzXlXlXlXvXvXvXvXmXlXMX].a ,.;.' A x.A.w.D.8.M., .XmXhXlXcXlXlXxXxXxXxXxXxXxXxXlXlXvXvXvXvXvXlXlXlXlXlXlX",
"lXlXlXlXlXlXlXlXlXlXlXlXlXlXlXvXbXbXvXzXlXlXvXvXmXyXvXvXvX0X8X{.e ^.X ) v.9.D.0.7.d.x b ,XMXmXxXzXxXxXxXxXxXxXxXxXlXlXlXvXvXvXvXvXlXlXlXlXlXlX",
"lXlXlXlXlXlXlXlXlXlXlXlXlXlXlXvXvXbXvXzXlXlXvXvXvXmXyXaXMX8XcX8X{.. * K.z.S.Z.0.0.i./ = ].MX3XzXzXxXxXxXxXxXxXlXlXlXlXlXlXvXvXvXvXlXlXlXlXlXlX",
"lXlXlXlXlXlXlXlXlXlXlXlXlXlXlXvXvXvXvXzXlXlXlXvXyXMXvXzX4XcX%X@X@X; ) 3.z.2.q.b.b.8.t.x C gX1XMXzXxXxXxXxXxXlXlXlXlXlXlXlXvXvXvXlXlXlXlXlXlXlX",
"lXlXlXlXlXlXlXlXlXlXlXlXlXlXlXvXvXvXvXlXlXlXlXvXMXyXaXzXcX%X{ # 8 ; Y a.c.l.7.0.q.k.h.( * ,XmXjXvXlXlXlXlXlXlXvXlXlXlXlXlXvXvXvXlXlXlXlXlXlXlX",
"lXlXlXlXlXlXlXlXlXlXlXlXlXlXlXvXvXvXvXlXlXxXlXlXvXxXMX4XeX=.i (.+.v ) m.1.k.0.b.w.N.G.x.U _.nXhXvXlXxXlXlXlXvXvXvXlXlXlXlXvXvXvXlXlXlXlXlXlXlX",
"lXlXlXlXlXlXlXlXlXlXlXlXlXlXlXvXvXvXvXlXlXxXxXlXlXlXzX3XeX*.w ~.6 P f.Z.F.e.F.e.F.2.j.r.U C <XMXlXlXlXlXvXvXvXvXvXvXvXvXvXvXvXvXlXlXlXlXlXlXlX",
"lXlXlXlXlXlXlXlXlXlXlXlXlXlXlXvXbXbXvXlXxXxXxXxXxX4XzXMX%X@X{   ~ y.k.Z.q.0.b.0.Z.9.z.m.U 0 lXcXlXlXlXlXvXvXvXvXvXvXvXvXvXvXvXvXlXlXlXlXlXlXlX",
"lXlXlXlXlXlXlXlXlXlXlXlXlXlXlXvXdXdXzXzXxXxXwXwXMXbXsXMXaXMX%.O d.P I t.n L c.z.g.g.l.x.T b kXxXxXlXlXlXlXlXlXlXvXlXvXlXlXlXlXlXlXlXlXlXlXlXlX",
"lXlXlXlXlXlXlXlXlXlXlXlXlXlXlXvXdXdXzXxXvXxXwXwX0XbXMXsXOX$X| v m.L j _ x G c.A.y.y.l.l.T v kXxXxXlXlXlXlXlXlXlXlXlXlXlXlXlXlXlXlXlXlXlXlXlXlX",
"lXlXlXlXlXlXlXlXlXlXlXlXlXlXlXvXvXvXkXkXjXjXwXwXMX5X#X^.@ $ X Y m.P h _ x G c.j.g.g.l.l.E m hXxXxXlXlXlXlXlXlXlXlXlXlXlXlXlXlXlXlXlXlXlXlXlXlX",
"lXlXlXlXlXlXlXlXlXlXlXlXlXlXlXlXjXkXjXjXjXjXwXqXfXbX$ y (.} 4 5.r.P > J , H Y.j.g.g.Z.l.R m hXxXlXlXlXlXlXlXlXlXlXlXlXlXlXlXlXlXlXlXlXlXlXlXlX",
"lXlXlXlXlXlXlXlXlXlXlXlXlXlXlXxXkXkXkXxXwXqXqXzXsXdX*.f =.p W 5.a.( > M * n A.2.k.q.Z.l.R m hXvXlXlXlXlXlXlXlXlXlXlXlXlXlXlXlXlXlXlXlXlXlXlXlX",
"lXlXlXlXlXlXlXlXlXlXlXlXlXlXlXxXkXkXxX0XqXqXzXdXbXzXrX:.@ o W L.a./ H _ ~ / A.A.k.q.Z.l.T A vXvXlXlXlXlXlXlXlXlXlXlXlXlXlXlXlXlXlXlXlXlXlXlXlX",
"lXlXlXlXlXlXlXlXlXlXlXlXlXlXlXvXvXlX9XrXbXdXdXbX3X%X|.*X=.5 J.F g l l H ~ / 9.Z.q.q.N.l.T V vXzXlXlXlXlXlXlXlXlXlXlXlXlXlXlXlXlXlXlXlXlXlXlXlX",
"lXlXlXlXlXlXlXlXlXlXlXlXlXlXlXvXvXzXqXqXbXdXdXbX*.. % f /.  & g L 3.R n J t.9.Z.q.q.j.h.U V vXzXxXlXlXlXlXlXlXlXlXlXlXlXlXlXlXlXlXlXlXlXlXlXlX",
"lXlXlXlXlXlXlXlXlXlXlXlXlXlXlXlXbXzXgXmXhXuXvXMX} s >.} o = 1 H r.c.x.K j t.c.f.0.k.k.u.v oXMXcXxXlXlXlXlXlXlXlXlXlXlXlXlXlXlXlXlXlXlXlXlXlXlX",
"lXlXlXlXlXlXlXlXlXlXlXlXlXlXlXlX4XMXvXhXnXnXiXMXo.] @.# ' A 3 _ x.f.z.K : M u.g.g.y.A.n < gXcX3XxXlXlXlXlXlXlXlXlXlXlXlXlXlXlXlXlXlXlXlXlXlXlX",
"lXlXlXlXlXlXlXlXlXlXlXlXlXlXlXlX0X8XeXcXcXcXcXMXO.6 Q S J.M & G u.4.c.K : J K.i.u.6.1.g X OXcX3XxXlXlXlXlXlXlXlXlXlXlXlXlXlXlXlXlXlXlXlXlXlXlX",
"lXlXlXlXlXlXlXlXlXlXlXlXlXlXlXlX7XcXeX@.i i { MXP.h L m.r.( z M u.l.G.K & m _ ( p.J g n 6 $XMXqXlXlXlXlXlXlXlXlXlXlXlXlXlXlXlXlXlXlXlXlXlXlXlX",
"lXlXlXlXlXlXlXlXlXlXlXlXlXlXlXlXMX3XeXd u &.] Z U i.n.0.f.Y.z z m.i.3.G c C ^ ~ > l g ) 6 OXMXzXlXlXlXlXlXlXlXlXlXlXlXlXlXlXlXlXlXlXlXlXlXlXlX",
"lXlXlXlXlXlXlXlXlXlXlXlXlXlXlXvXvX2X5Xs #.@.q A R s.s.! g.P : S T y.c.n < C C & 1 T a.J.- >XvXvXvXlXlXlXlXlXlXlXlXlXlXlXlXlXlXlXlXlXlXlXlXlXlX",
"lXlXlXlXlXlXlXlXlXlXlXlXlXlXlXvXvXMXxXp   0 a.4.G c 6 6 S ) k S m.x.m.G U.mX,X6  .J.L.Y 6 <XMXvXvXlXlXlXlXlXlXlXlXlXlXlXlXlXlXlXlXlXlXlXlXlXlX",
"lXlXlXlXlXlXlXlXlXlXlXlXlXlXlXvX;XQ.5   - 3 l g v +.[ [ Q.sXI.X x 1 M & C >X,XO - 2 h k X W.iXvXvXlXlXlXlXlXlXlXlXlXlXlXlXlXlXlXlXlXlXlXlXlXlX",
"lXlXlXlXlXlXlXlXlXlXlXlXlXlXlXvXXXW.O.~.W.R.Q.I.XXyXMXMXMXvXXXI.R.R.Q.I.E.+X2X!.I.Q.I.R.W.!.-XMXlXlXlXlXlXlXlXlXlXlXlXlXlXlXlXlXlXlXlXlXlXlXlX",
"lXlXlXlXlXlXlXlXlXlXlXlXlXlXlXlXMXxXxXMXcXcXMXMXMXxX1XxXlXMXMXMXMXMXMXMXMXbXMXlXbXMXlXMXcXxXMXlXlXlXlXlXlXlXlXlXlXlXlXlXlXlXlXlXlXlXlXlXlXlXlX"
};
