/* XPM */
static char *_f7ce0285ad541b2cd370df7025ed68fCZJH9bvRZmKDONe8[] = {
/* columns rows colors chars-per-pixel */
"64 64 185 2 ",
"   c #010101",
".  c #0B0A00",
"X  c #0B0B0B",
"o  c #150D03",
"O  c #171300",
"+  c #1E1900",
"@  c #0E0F12",
"#  c #131313",
"$  c #17191A",
"%  c #1D1D1D",
"&  c #210D05",
"*  c #211C00",
"=  c #241108",
"-  c #2E2700",
";  c #322A00",
":  c #3B3200",
">  c #242324",
",  c #272729",
"<  c #2B2B2B",
"1  c #393728",
"2  c #2F2F31",
"3  c #302F30",
"4  c #363637",
"5  c #3C3C3C",
"6  c #443A01",
"7  c #4A3F01",
"8  c #7F3B1D",
"9  c #514501",
"0  c #574B07",
"q  c #6D5C01",
"w  c #705F01",
"e  c #726101",
"r  c #7D6A01",
"t  c #736517",
"y  c #7F4227",
"u  c #434243",
"i  c #525252",
"p  c #5A595A",
"a  c #635F4E",
"s  c #5F5E60",
"d  c #606060",
"f  c #7C726E",
"g  c #757476",
"h  c #7D7C7D",
"j  c #83401C",
"k  c #836F01",
"l  c #877301",
"z  c #8A7501",
"x  c #957E01",
"c  c #9D4924",
"v  c #AD5327",
"b  c #AF5228",
"n  c #DE6733",
"m  c #E26934",
"M  c #F87638",
"N  c #FB753A",
"B  c #6FAD44",
"V  c #71AF47",
"C  c #72AF48",
"Z  c #76B14C",
"A  c #79B44E",
"S  c #7CB84E",
"D  c #7BB452",
"F  c #7FB952",
"G  c #998304",
"H  c #A48B01",
"J  c #AE840B",
"K  c #AD9301",
"L  c #B19601",
"P  c #B59A04",
"I  c #BB9F01",
"U  c #BEA101",
"Y  c #C5A702",
"T  c #CDAE02",
"R  c #DAAD09",
"E  c #D4B402",
"W  c #DEBC02",
"Q  c #E0BE02",
"!  c #F9BC0F",
"~  c #E4C202",
"^  c #EBC702",
"/  c #EDC902",
"(  c #F1CC02",
")  c #F6D102",
"_  c #FBD502",
"`  c #FFD902",
"'  c #80B657",
"]  c #83BD53",
"[  c #84B95B",
"{  c #89BE5C",
"}  c #87BA60",
"|  c #8ABC63",
" . c #8EBD69",
".. c #90BE6B",
"X. c #86C055",
"o. c #8AC457",
"O. c #8DC45C",
"+. c #8FC958",
"@. c #90C75D",
"#. c #92CA5C",
"$. c #8EC163",
"%. c #91C564",
"&. c #95CB61",
"*. c #99CE66",
"=. c #92C26A",
"-. c #96C86B",
";. c #9ACC6C",
":. c #9ED16E",
">. c #96C373",
",. c #9DCD72",
"<. c #9BC779",
"1. c #9BC67A",
"2. c #A0CE75",
"3. c #A2D274",
"4. c #A5D478",
"5. c #A6D479",
"6. c #A7D57A",
"7. c #A8D57C",
"8. c #807F81",
"9. c #818081",
"0. c #8B8A89",
"q. c #939294",
"w. c #979798",
"e. c #9E9E9F",
"r. c #A09E92",
"t. c #A1A0A2",
"y. c #AEAEAE",
"u. c #AFAFB0",
"i. c #B4B4B4",
"p. c #B7B7B7",
"a. c #BEBEBD",
"s. c #A2CA82",
"d. c #A6CE8A",
"f. c #A8CF8C",
"g. c #ABD681",
"h. c #AED885",
"j. c #ACD28D",
"k. c #AFD888",
"l. c #B3DB8D",
"z. c #AED292",
"x. c #B1D496",
"c. c #B7DC92",
"v. c #B4D59A",
"b. c #B7D89F",
"n. c #BADC9D",
"m. c #BFE19E",
"M. c #B9D7A0",
"N. c #BAD9A2",
"B. c #BCDAA4",
"V. c #BFDBA8",
"C. c #C0E29F",
"Z. c #C3DDAF",
"A. c #C2E2A5",
"S. c #C6E4AB",
"D. c #C9E6AE",
"F. c #C7E1B1",
"G. c #CBE6B2",
"H. c #CDE9B3",
"J. c #CDE4BE",
"K. c #D0E9BA",
"L. c #D2EBBB",
"P. c #C6C6C5",
"I. c #CBCCCB",
"U. c #D0CFD0",
"Y. c #D2D3D2",
"T. c #D6D9D3",
"R. c #D8D9D6",
"E. c #DADBDA",
"W. c #D5E9C5",
"Q. c #DAEFC5",
"!. c #D7E9C9",
"~. c #DDF3CA",
"^. c #DFECD6",
"/. c #DEE2DB",
"(. c #E1E5DD",
"). c #E4EDDC",
"_. c #E3F3D4",
"`. c #E6F2DC",
"'. c #E8F5DD",
"]. c #E4E4E4",
"[. c #E9ECE6",
"{. c #EBF3E4",
"}. c #EEF3EA",
"|. c #F2F8EC",
" X c #F4F7F2",
/* pixels */
"#.#.#.O.[ [ [ &.&.&.;.5.5.5.5.5.5.-.Z C C -.5.5.2.......| [ [ { &.&.&.] C C Z #.&.&.O.[ [ [ [ [ [ { #.#.#.{ [ [ [ [ [ [ O.#.#.#.",
"#.#.#.O.[ [ [ &.&.&.;.5.5.5.5.5.5.-.Z C C -.5.5.2.......| [ [ { &.&.&.] C C Z #.&.&.O.[ [ [ [ [ [ { #.#.#.{ [ [ [ [ [ [ O.#.#.#.",
"#.#.#.O.[ [ [ &.&.&.;.5.5.5.5.5.5.-.C C C -.5.5.2.......| [ [ { &.&.&.] V C Z #.&.&.O.[ [ [ [ [ [ { #.#.#.{ [ [ [ [ [ [ O.#.#.#.",
"#.#.#.O.{ { { #.#.#.;.5.5.5.:.;.:.%.D D D %.:.:.;.,.,.,. .[ [ { &.&.&.o.] ] ] #.#.#.O.[ [ [ [ [ [ { ;.;.;.{ [ [ [ O.O.O.O.#.#.#.",
"#.#.#.O.| | | @.#.#.*.5.5.5.&.#.#.O.[ [ [ O.&.&.*.5.5.5.%.[ [ { &.&.&.#.#.#.#.#.#.#.O.[ [ [ [ [ [ $.5.5.5.$.[ [ { #.#.#.#.#.#.#.",
"#.#.#.O.| | | @.#.#.*.5.5.5.&.#.#.O.[ [ [ O.&.&.*.5.5.5.%.[ [ { &.&.&.#.#.#.#.#.#.#.O.[ [ [ [ [ [ $.5.5.5.$.[ [ { #.#.#.#.#.#.#.",
"#.#.#.O.| | | O.#.#.*.3.3.3.*.#.#.O.{ { { O.&.&.*.3.3.3.$.[ [ { &.&.&.#.#.#.#.#.#.#.O.[ [ [ [ [ [ $.5.5.5.$.[ [ { #.#.#.#.#.#.#.",
"#.#.#.O.| | | { [ [ { | | | ;.3.3.,. . . .| { { { | | | | | | | | | | { [ [ [ [ [ [ O.@.@.@.#.&.&.&.&.&.&.#.O.O.#.#.#.#.O.[ [ [ ",
"#.#.#.O.| | | [ [ [ [ [ [ { ,.5.5.2.......} [ [ [ [ [ [ { | | | | | | { [ [ [ [ [ [ { #.#.#.&.&.&.#.#.#.#.#.#.#.#.#.#.#.{ [ [ [ ",
"#.#.#.O.| | | { [ [ [ [ [ [ ,.5.5.2.......} [ [ [ [ >.v.N.B.B.B.B.B.B.N.N.N.b.N.b.b.N.A.C.l.&.&.&.#.#.#.#.#.#.#.#.#.#.#.{ [ [ [ ",
"X.X.X.{ } } } { [ [ { %.%.%.2.5.5.2.......} [ [ [ { B.[.i.i.i.i.i.i.i.i.i.i.i.i.i.i.i.i.Y.`.%.O.O.&.*.*.*.*.*.*.*.#.#.#.{ [ [ [ ",
"C C C D [ [ [ [ [ [ $.5.5.5.5.5.5.2.......} [ [ { #.S.i.X                               s ^.| [ [ $.5.5.5.5.5.5.3.#.#.#.{ [ [ [ ",
"C C C D [ [ [ [ [ [ $.5.5.5.5.5.5.2.......} [ [ { #.S.y.                                p ^.{ [ [ $.5.5.5.5.5.5.3.#.#.#.{ [ [ [ ",
"Z Z Z D { [ [ [ [ [ $.5.5.5.5.5.5.,... . .} [ [ =.7.L.u.                                p `.s.1.1.s.5.5.5.5.5.5.3.#.#.#.{ [ [ [ ",
"o.o.o.O. . .| D Z Z ' =.=.=.&.&.&.%.{ { { O.O.O.S.}./.w.  . + * * * * * * * * * * * * + a E.T.T./.{.1.{ | =.=.=.=.| | | O.O.O.O.",
"#.#.#.%..... .Z V V D | | | @.#.#.O.[ [ [ O.#.#.L.t.% #   ; E Q W W W W W W W W W W W Q G % % % u (.>.' [  ..... .| | | O.#.#.#.",
"#.#.#.%..... .Z V V D | | | @.#.#.O.[ [ [ O.#.#.L.q.      : ( ` ` ` ` ` ` ` ` ` ` ` ` ` H       , /.>.F [  ..... .| | | O.#.#.#.",
"#.#.#.%.%.%.$.F S S ] | | | O.O.O.O.' F F O.%.&.L.q.      : / ` _ _ _ _ _ _ _ _ _ _ _ ` H       < /.1.| { |  . . .$.$.$.O.O.O.O.",
"#.#.#.#.#.#.#.#.#.#.#.#.#.#.{ [ [ [ D D D [ Z.).}.0.      : ( ` _ _ _ _ _ _ _ _ ) ) ) ` H . .   , ].[.).1.[ [ [ { &.&.&.O.[ [ [ ",
"#.#.#.#.#.#.#.#.#.#.#.#.#.#.{ [ [ [ D D D [ W.t.u ,   : P Y ) _ _ _ _ _ _ _ _ ` x 6 G ` ~ I z . X 5 p /.s.[ [ [ { &.&.&.{ [ [ [ ",
"#.#.#.#.#.#.#.#.#.#.#.#.#.#.{ [ [ [ D D D F W.h       9 ` ` _ _ _ _ _ _ _ _ _ ` q   w ` ` ` U .     # Y.s.[ [ [ { &.&.&.O.[ [ [ ",
"3.3.3.*.#.#.#.:.3.3.-.$.$.| { [ [ [ F F F D W.h       9 ) _ _ _ _ _ _ _ _ _ _ ` q   e ` _ ` I .     $ T.g.O.O.O.O.&.&.&.&.O.O.O.",
"5.5.5.;.#.#.#.3.5.n.~.!.!.!.W.W.W.W.1.[ [ Z J.h       9 ) _ _ _ _ _ _ _ _ _ _ ` q   w ` _ ` I .     $ E._.Q.Q.Q.k.#.&.&.&.&.&.&.",
"5.5.5.;.#.#.#.3.5.G.E.9.h h h h 0.].d.' [ Z J.h       9 ) _ _ _ _ _ _ _ _ _ _ ` P r I ` _ ` R j 8 8 y f h h 8.E.A.#.&.&.&.&.&.&.",
"3.3.3.*.O.O.O.:.3.D.i.          X I.f.[ { F W.h       9 ) _ _ _ _ _ _ _ _ _ _ _ ` ` ` _ _ _ ! N N N m &       i.S.O.&.&.&.&.%.%.",
"#.#.#.O.D D D O.+.C.i.          # I.d.F [ -._.h       9 ) _ _ _ _ _ _ _ _ _ _ _ _ _ _ _ _ _ ! N N N n =       i.A.[ [ [ [ [ [ [ ",
"#.#.#.X.D D D 5.m.~.i.          @ Y.J.N.N.D.|.h       9 ` ` _ _ _ _ _ _ _ _ _ _ _ _ ` ` ` ` ! N N N m =       i.A.[ [ [ [ [ [ [ ",
"#.#.#.X.D D S S.].i.9.  . 6 7 7 0 r.i.i.i.i.i.p       : K Y ) _ _ _ _ _ _ _ _ _ _ ` W L L L J v b b c o   4 i I.A.[ [ [ [ [ [ [ ",
"#.#.#.O.O.O.O.G.t.      ; ~ ) ) ~ ;                       : ( ` _ _ _ _ _ _ _ _ _ ` z   . . .           X P.{.).x.-.-.-.| [ [ [ ",
"#.#.#.#.&.&.#.H.e.      ; ^ ` ` ^ -                       : / ` _ _ _ _ _ _ _ _ _ ` z                   X P.x.} $.5.5.5.%.[ [ [ ",
"#.#.#.#.&.&.#.H.e.      ; ^ ` ` ^ -                       ; / ` _ _ _ _ _ _ _ _ _ ` l                   X P.z.' | 5.5.5.%.[ [ [ ",
"@.@.@.#.&.#.#.H.e.      ; ^ ` ` / 7 + * * * * * * * * * + 9 ( ` _ _ _ _ _ _ _ _ _ ` G * O         > > > < I.z.[ | 2.3.3.%.[ [ [ ",
"[ [ [ O.#.#.#.L.e.      ; ^ ` _ ) ~ W Q Q Q Q Q Q Q Q Q W ~ _ _ _ _ _ _ _ _ _ _ _ _ / ~ x       , Y./.E./.}.d.[ {  . . .O.#.#.#.",
"[ [ [ O.#.#.#.L.e.      ; ^ ` _ _ ` ` ` ` ` ` ` ` ` ` ` ` ` _ _ _ _ _ _ _ _ _ _ _ _ ` ` H       < (.j.1.1.1.| [ { | | | O.#.#.#.",
"[ [ [ O.#.#.#.L.e.      ; ^ ` _ _ _ _ _ _ _ _ _ _ _ _ _ _ _ _ _ _ _ _ _ _ _ _ _ _ _ _ ` H       < /.>.[ [ [ [ [ { | | | O.#.#.#.",
"| | | { O.O.O.L.e.      ; ^ ` _ _ _ _ _ _ _ _ _ _ _ _ _ _ _ _ _ _ _ _ _ _ _ _ _ _ _ _ ` H       < /.>.[ [ { { { { $.$.$.O.O.O.O.",
"......| [ [ [ L.e.      ; ^ _ _ _ _ _ _ _ _ _ _ _ _ _ _ _ _ _ _ _ _ _ _ _ _ _ _ _ _ _ ` H       < /.>.[ [ | | | | #.#.#.$.| | | ",
"......| [ [ [ L.e.      ; ^ _ _ _ _ _ _ _ _ _ _ _ _ _ _ _ _ _ _ _ _ _ _ _ _ _ _ _ _ _ ` H       < /.>.[ [ | | | | #.#.#.$.| | | ",
"=.=.=. .{ [ [ L.e.      ; ^ ` _ _ _ _ _ _ _ _ _ _ _ _ _ _ _ _ _ _ _ _ _ _ _ _ _ _ _ _ ` H       < /.1.[ { |  . .$.#.#.#.$.| | | ",
"3.3.3.;.&.&.@.G.e.      ; / ` _ _ _ _ _ _ _ _ _ _ _ _ _ _ _ _ _ _ _ _ _ _ _ _ _ _ _ ` ` H       , /.5.#.&.;.3.3.;.#.#.#.{ { { { ",
"5.5.5.:.&.&.#.F.Y.0.d   O q k ^ ` _ _ _ _ _ _ _ _ _ _ _ _ _ _ _ _ _ _ _ _ _ _ _ _ ` U e 7   > 9.e.}.5.&.&.3.5.5.3.#.#.#.{ [ [ [ ",
"5.5.5.:.&.&.#.j.J.'.i.      + W ` _ _ _ _ _ _ _ _ _ _ _ _ _ _ _ _ _ _ _ _ _ _ _ _ ` l       u }.Q.G.:.&.&.3.5.5.3.#.#.#.{ [ [ [ ",
"-.-.-.&.&.&.&.| { N.i.      * W ` _ _ _ _ _ _ _ _ _ _ _ _ _ _ _ _ _ _ _ _ _ _ _ _ ` z       u ).3.&.%.%.%.;.:.:.;.#.#.#.{ { { { ",
"[ [ [ O.&.&.&.=. .V.i.      * ~ ` ` _ _ _ _ _ _ _ _ _ _ _ _ _ _ _ _ _ _ _ _ _ _ ` ` z       5 ).h.,.| | | %.&.&.&.#.#.#.| | | | ",
"[ [ [ O.&.&.&.=. .V.U.p u   O x L / ` _ _ _ _ _ _ _ _ _ _ _ _ _ _ _ _ _ _ _ _ ` E K 0   % i 9.{.h.,.| | | %.&.&.&.#.#.#.$.| | | ",
"[ [ [ O.&.&.&.=...v.`.{.I.#     O T ` _ _ _ _ _ _ _ _ _ _ _ _ _ _ _ _ _ _ _ _ ` e       p  X{.~.g.,.| | | &.&.&.&.#.#.#.$.| | | ",
"[ [ [ F S S D -.3.5.,.c.I.#     o T ` _ _ _ _ _ _ _ _ _ _ _ _ _ _ _ _ _ _ _ _ ` q       p `.>. .| $.@.@.@.&.&.&.&.| | | F Z Z Z ",
"[ [ [ D V V Z ,.5.5.:.l.I.X     . T ` ` ` ` ` ` ` ` ` ` ` ` ` ` ` ` ` ` ` ` ` ` q       p `. .[ [ { #.#.#.#.&.&.&.| | | D V C C ",
"[ [ [ D V V Z ,.5.5.;.l.Y.4 , , 1 P E E E E E E E E E E E E E E E E E E E E E E t , , , g `.$.[ [ { #.#.#.#.&.&.&.| | | D V C C ",
"[ [ [ F Z Z D -.-.-.-.k.}.(./.(.R.1 O O O O O O O O O O O O O O O O O O O O O O 0.[./.(.[._. .[ [ { #.#.#.*.;.;.&.{ [ [ D Z Z Z ",
"[ [ [ [ [ [ [ [ [ [ | >.s.s.5.l.).2                                             q.Q.g.c.l.k.| [ [ { &.&.&.3.5.5.;.D D D F [ [ [ ",
"[ [ [ [ [ [ [ [ [ [ | .. . .O.3.(.3                                             q.L.*.5.5.3.{ [ [ { &.&.&.3.5.5.;.D D D F [ [ [ ",
"[ [ [ [ [ [ [ [ [ [ | .. . .@.3.(.4   X X X X X X X X X X X X X X X X X X X X X q.L.*.5.5.3.{ [ [ { &.&.&.3.5.5.-.D D D F [ [ [ ",
"O.O.O.{ | | | { [ [ { { { } -.h.}.I.a.a.a.a.a.a.a.a.a.a.a.a.a.a.a.a.a.a.a.a.a.a.].W.-.| $.| D Z Z F =.=.=.&.*.*.%.[ [ [ D Z Z Z ",
"#.#.#.O.| | | { [ [ [ [ [ [ ,.g.A.A.N.M.M.v.x.x.x.x.x.x.j.d.d.d.v.v.v.v.z.z.x.A.S.c.-.[ [ [ Z V V D ......%.#.#.O.[ [ [ A V C C ",
"#.#.#.O.| | | { [ [ [ [ [ { ,.5.5.,. . . .{ [ [ [ [ [ [ Z B B C { | | [ F F [ ,.5.5.-.[ [ [ Z C V F ......%.#.#.O.[ [ [ A V C C ",
"#.#.#.%.%.%.=.| { { { [ [ { -.,.,.-. . . .[ F F [ [ [ [ F D D D | | | { { { { -.-.;.$.[ [ [ Z C C D  . . .@.#.#.O.[ [ [ D Z Z Z ",
"#.#.#.;.5.5.5.=. ...| [ [ [ { { { { { { [ A C C Z [ [ [ |  . ...&.&.&.&.&.&.#.S Z Z Z D D D Z C C Z [ { { O.#.#.O.[ [ [ [ [ [ [ ",
"#.#.#.;.5.5.5.=.....| [ [ [ [ [ [ [ [ [ [ A C C Z [ [ [ | ....=.&.&.&.&.&.&.#.Z C C Z D D D Z C C Z [ [ [ O.#.#.O.[ [ [ [ [ [ [ ",
"#.#.#.;.5.5.5.=.....| [ [ [ [ [ [ [ [ [ [ A C C Z [ [ [ | ....=.&.&.&.&.&.&.#.Z C C Z D D D Z C C Z [ [ [ O.#.#.O.[ [ [ [ [ [ [ ",
"#.#.#.O.{ { { O.%.%.O.[ [ [ [ [ [ [ O.O.O.S C C A O.O.O.%.%.%.%.$.$.$.%.#.#.#.%.%.-.$.F F ' ] X.X.{ | |  .-.:.:.-.{ [ [ } | | | ",
"#.#.#.] V V Z O.#.#.O.[ [ [ [ [ [ { #.#.#.S C C S &.&.&.&.&.&.&.| | | O.#.#.#.5.5.5.-.[ [ [ O.#.#.%.......2.5.5.,.{ [ [ |  .....",
"#.#.#.] C C Z O.#.#.O.[ [ [ [ [ [ { #.#.#.S C C S &.&.&.&.&.&.&.| | | O.#.#.#.3.5.5.-.[ [ [ O.#.#.%.......,.5.5.,.{ [ [ | ......",
"#.#.#.] C C Z O.#.#.O.[ [ [ [ [ [ { #.#.#.S C C S &.&.&.&.&.&.&.| | | O.#.#.#.3.5.5.-.[ [ [ O.#.#.%.......,.5.5.,.{ [ [ |  ....."
};
