/* XPM */
static char *a2379db78d19497b8f1e846737b6cdbdzrzLVP5avwZSPwKq[] = {
/* columns rows colors chars-per-pixel */
"64 64 146 2 ",
"   c #333333",
".  c #3E3933",
"X  c #3A3B3B",
"o  c #453C33",
"O  c #4A3E34",
"+  c #4F4034",
"@  c #4C433B",
"#  c #424B3A",
"$  c #51463C",
"%  c #46523B",
"&  c #49553C",
"*  c #7E5735",
"=  c #55763E",
"-  c #424343",
";  c #534B43",
":  c #584D44",
">  c #4C5942",
",  c #577740",
"<  c #5E7B46",
"1  c #5E7B49",
"2  c #607F45",
"3  c #617D4A",
"4  c #657E51",
"5  c #825935",
"6  c #8C5E35",
"7  c #906035",
"8  c #9A6535",
"9  c #BF7736",
"0  c #C47937",
"q  c #C47D3F",
"w  c #D37F34",
"e  c #5C8241",
"r  c #618346",
"t  c #608B42",
"y  c #66854B",
"u  c #68864C",
"i  c #67894D",
"p  c #6C8E4D",
"a  c #6E914D",
"s  c #71954E",
"d  c #678350",
"f  c #6B8653",
"g  c #6B8952",
"h  c #6F8858",
"j  c #718A59",
"k  c #6E9350",
"l  c #709351",
"z  c #779F50",
"x  c #76935B",
"c  c #79965C",
"v  c #7B985F",
"b  c #74B249",
"n  c #78B44E",
"m  c #7DB94F",
"M  c #7CA753",
"N  c #7CA853",
"B  c #7EB351",
"V  c #D48137",
"C  c #D88337",
"Z  c #D5843B",
"A  c #D8863D",
"S  c #83B457",
"D  c #84BF53",
"F  c #85BB5C",
"G  c #89BD5B",
"H  c #80A661",
"J  c #86B463",
"K  c #8BBD64",
"L  c #90BE6B",
"P  c #C58246",
"I  c #D68740",
"U  c #D78945",
"Y  c #D98942",
"T  c #D88D4A",
"R  c #D9904F",
"E  c #DA9354",
"W  c #DB9659",
"Q  c #DC995D",
"!  c #DD9D64",
"~  c #DB9E68",
"^  c #DFA16A",
"/  c #E0A46E",
"(  c #E1A672",
")  c #E2A976",
"_  c #E3AC7B",
"`  c #85C055",
"'  c #88C355",
"]  c #8CC45C",
"[  c #8EC859",
"{  c #93CC5D",
"}  c #8DC064",
"|  c #90C660",
" . c #96CE62",
".. c #92C16C",
"X. c #96CA69",
"o. c #99CB6D",
"O. c #97D062",
"+. c #9DD26B",
"@. c #9FD073",
"#. c #A3D475",
"$. c #A5D478",
"%. c #A8D77A",
"&. c #A9D87B",
"*. c #E5B285",
"=. c #E6B58A",
"-. c #E7B98F",
";. c #E4BA94",
":. c #E8BC95",
">. c #E2BC9A",
",. c #E9BF99",
"<. c #EAC19C",
"1. c #E3C1A3",
"2. c #EBC6A4",
"3. c #E3C4A8",
"4. c #EDCBAC",
"5. c #E5CBB5",
"6. c #EECEB1",
"7. c #EFD1B6",
"8. c #F1D5BC",
"9. c #C3C2C1",
"0. c gray81",
"q. c #D3D1CF",
"w. c #E6D4C2",
"e. c #E6DACF",
"r. c #F1D7C0",
"t. c #F3DBC5",
"y. c #F3DDCA",
"u. c #E9DBD0",
"i. c #E9DCD0",
"p. c #F5E1CF",
"a. c #F6E4D4",
"s. c #F7E8DB",
"d. c #F8EADE",
"f. c #EDEEEF",
"g. c #F9EEE4",
"h. c #FAF0E7",
"j. c #FBF3EB",
"k. c #FBF4EE",
"l. c #EDEFF0",
"z. c #EEF0F2",
"x. c gray94",
"c. c #FCF6F1",
"v. c #FDF9F6",
"b. c #FEFBF9",
"n. c #FEFCF9",
"m. c #FFFFFE",
/* pixels */
"{ { { ] F F F  . . .+.%.%.%.%.%.&.o.b b b X.&.%.#.......K F F F  . . .` b b b {  . .] F F F F F F ] { { { G F F F F F F ] { { { ",
"{ { { S y 1 1 y u u f j j j j j j f = = = d j j h 4 4 4 3 1 1 3 y u u < = = , y u u y < < 1 1 1 1 3 y y y 3 1 1 1 1 1 i S { { { ",
"{ { z #                                                                                                                 % N { { ",
"{ S #                                                                                                                     & G { ",
"{ a                                                                                                                         z { ",
"{ y       + 7 8 8 8 8 8 8 8 8 8 8 8 8 8 8 8 8 8 8 8 8 8 8 8 8 8 8 8 8 8 8 8 8 8 8 8 8 8 8 8 8 8 8 8 8 8 8 8 8 8 8 6 o       a { ",
"{ y       7 C C C C C C C C C C C C C C C C C C C C C C C C C C C C C C C C C C C C C C C C C C C C C C C C C C C C 5       a { ",
"{ y       8 C C C C C C C C V V C C C C V V V C V V C C C C C C C C C C C C V V C C C C V V V C V V C C C C C C C C 6       i F ",
"{ y       8 C V V C C C V V V V V V V C V V V V V C V V V V V V V V V V V V V V V V V V V V V V V C C C V V V V V C 6       y F ",
"{ y       8 C V C C C C V V V V V V V C V V V V C C V V V V V V V V V V V V V V V V V V V V V V C C C C V V V V V C 6       y F ",
"' 2       8 C C V V C C V V C C V V C C V V V V C C C V V V V C V V C C V C C V V V C C V C V V V V C V V V V C C C 6       y F ",
"b =       8 C C V V V V V V V C V V C C C V V V C C V V V V C C V C C C C C V V V V C C C C V V V V V V V V V C C C 6       y F ",
"b =       8 C C V V V V V V C C V V V V V V V V C C C C V V V V V V V C C C V V V V C C V C C V V V V V V V C C V C 6       y F ",
"b =       8 C C V V V V V V C C V V C C V V C C C C C C V V V V V V V C C C V V V V C C V V V V V V V V V V C C V C 6       y F ",
"[ r       8 C C V V V C V V V V V V C C V V V V C V C ~ 1.3.3.3.3.3.3.1.Q C V V V V V V V V V V V V V C V V V V V C 6       p { ",
"{ y       8 C C V V V C V V V V V V V V V V V V V V I w.z.l.l.l.l.l.l.z.5.Z V V V V V V V V V V V V C C V V V V V C 6       a { ",
"{ y       8 C C V V V V C C C C V V V V C V V V V w U i.f.f.f.f.f.f.f.l.w.Z C C C C V V C V V V V V V V C C C C C C 6       a { ",
"{ y       8 C C V V V V V C C C V V V V C C V V V w U u.f.f.f.f.f.f.f.f.w.Z C C C C V V C C V V V V V V V C C C C C 6       p { ",
"{ y       8 C C V V V V V V C C C C V V C C C C V V U u.f.f.f.f.f.f.f.f.w.Z C C V V V V C C C C V V V V V V C C C C 6       y F ",
"{ y       8 C C C C C C C C C C C C C C C C C C C C U i.f.f.f.f.f.f.f.f.w.Z C C C C C C C C C C C C C C C C C C C C 6       y F ",
"{ y       6 0 9 9 9 9 9 9 9 9 9 9 9 9 9 9 9 9 9 9 9 P e.f.f.f.f.f.f.f.l.w.q 9 9 9 9 9 9 9 9 9 9 9 9 9 9 9 9 9 9 9 0 *       y F ",
"#.g       . o o o o o o o o o o o o o o o o o o o o ; q.f.f.f.f.f.f.f.z.9.@ o o o o o o o o o o o o o o o o o o o o .       p  .",
"%.j                                                 - 0.f.f.f.f.f.f.f.x.9.X                                                 l O.",
"%.j                                                 - 0.f.f.f.f.f.f.f.x.9.X                                                 l O.",
"#.g                                                 - 0.f.f.f.f.f.f.f.x.9.X                                                 a  .",
"{ y       o O O O O O O O O O O O O O O O O O O O O : q.f.f.f.f.f.f.f.l.9.$ O O O O O O O O O O O O O O O O O O O O o       y F ",
"{ y       7 0 0 0 0 0 0 0 0 0 0 0 0 0 0 0 0 0 0 0 0 P e.f.f.f.f.f.f.f.l.w.q 0 0 0 0 0 0 0 0 0 0 0 0 0 0 0 0 0 0 0 0 5       y F ",
"{ y       8 C C C C C C C C C C C C C C C C C C C C U i.f.f.f.f.f.f.f.l.w.Z C C C C C C C C C C C C C C C C C C C C 6       y F ",
"{ y       8 C C V C C C C C V V V C C C V V V V C C U u.f.f.f.f.f.f.f.l.w.Z V V V C C C C C C V V V C C C C V V C C 6       y F ",
"{ y       8 C C V V C C V C V V C C C C V V V V C C U u.f.f.f.f.f.f.f.l.w.Z C V C C V C C V C V V C C C C C V V C C 6       y F ",
"{ y       8 C C V V V V V V V V V V V V V V V C C C U i.f.f.f.f.f.f.f.l.w.Z V V V V V V V V V V V V V V V V V V C C 6       y F ",
"{ y       8 C C V V V V V V V V V V V V V V V C C C I w.z.f.f.f.l.l.l.z.5.Z V V V V V V V V V V V V V V V V V V C C 6       i F ",
"F 1       8 C V V C V V V w w w w w w w w C C C C C C ! >.>.>.>.>.>.>.>.W w C C C C w w V C C C V V V V V V V V V C 6       a { ",
"F 1       8 C V C C V V I ~ ^ ^ ^ ^ ^ ^ ! T C C C C V C C C V ) <.T w w W 2.^ C C E ^ Q V C C C V V V V V V V V V C 6       a { ",
"F 1       8 C C C C C w ! k.b.b.n.b.b.b.v.d.,.U w V V V C C Z t.k.E w w =.m.*.w w :.m.t.Z V C V V V C C V C C V C C 6       a { ",
"K 3       8 C C C C C w ! v.m.c.j.j.j.k.v.m.m.4.Z V V V C C U s.a.I C C 4.b.! w w ,.m.y.Z V V V C C C C V C C V V C 6       p | ",
"..4       8 C C C C C w ! v.c.( E E E W ^ 4.m.b.) w C C C C W c.8.Z C Z y.h.R C w ,.m.y.Z V V V V V V V V V V V V C 6       g K ",
"..4       8 C C C C C w ! v.c.W w V w w w I y.m.6.V C C C w ( m.:.w w T g.p.Z C w ,.m.y.Z V V V V V V V V V V V V C 6       g K ",
"..4       8 C C C V C w ! h.g.W C C C C C w :.b.8.Z Z T T T ,.m.=.T T / v.8.T I w ;.b.8.Z C V C V V V V C C V V V C 6       g K ",
"$.h       8 C C V V C C Z W W Z C C C C C C T ! E V T p.g.g.c.m.h.g.g.h.m.c.g.-.w T ! E V C C C V V V V C C V V V C 6       y F ",
"%.j       8 C C V V C C Z E E Z w w w w w I W W Z C T a.h.h.m.n.h.h.h.v.m.j.h.;.w U E T Z C C C V V V V V V V V C C 6       y F ",
"%.j       8 C C V V C w Q g.g._ ! ! ! ^ _ t.c.7.I C Z T T ! h.y.E T R t.c.^ T I w -.c.8.Z C C C V V V V V V V V C C 6       y F ",
"o.f       8 C C V V V w ! v.m.b.v.b.b.b.m.m.d.Q w V C C w ! v.4.V C I a.d.U w C w ,.m.y.Z V C C V V C V V C C C C C 6       i G ",
"F 1       8 C C V V V w ! v.m.c.c.c.c.c.v.m.n.8.E V C C w _ m.=.w C E j.t.Z C C w ,.m.y.Z V C C C C C V V C C C C C 6       g K ",
"F 1       8 C C C V C w ! b.v.) W W W W ! :.h.m.t.U C w w <.n.^ w w ! n.2.w w C w <.m.y.Z V V V V V V V V V V V V C 6       g K ",
"F 1       8 C C V V V C W r.8.R w V V w w w ( 8.8.W Z / ) p.v.-.) ( 4.m.6.( ) W w _ y.<.Z V V V V V V V C V V V V C 6       g K ",
"F 1       8 C V V V C C Z Z Z C C V V V C V C C Z C E h.m.m.m.m.m.m.m.m.m.m.m.<.w Z V V V C V V V V V C C C V V V C 6       e n ",
"F 1       8 C V V V C C T -.=.U C C V C C C Z _ :.! U 2.t.m.g.7.7.7.k.v.8.7.8.) w ! :.) Z C V V V V V C C C V V V C 6       e b ",
"F 1       8 C C V V C w ! v.c.Q C C C C V C T d.m.:.w w ^ n.<.C C T d.a.I C Z C w ,.m.y.Z C C C C C V V V C C C V C 6       e b ",
"F 1       8 C C V V C w ! v.c.W w w w w w Z :.m.v.^ w w -.m._ w V Q c.7.Z C C C w ,.m.t.Z w w w w w w w C C C C V C 6       e n ",
"F 1       8 C C V V V w ! v.v.<.*.*.*.*.;.8.v.m.8.Z C C 4.v.! w w ) m.:.w V C C w ,.m.d.=.*.*.*.*.*.*._ I V C C V C 6       y F ",
"F 1       8 C C V V V w ! v.m.m.m.m.m.m.m.m.m.y.W V C Z y.g.T C w :.m.) w C C C w <.m.m.m.m.m.m.m.m.m.j.E V V V V C 6       y F ",
"F 1       8 C V C C V w W a.s.s.s.s.s.s.a.8.=.T C C C T d.y.Z C C 4.k.Q w V V V C *.d.s.s.s.s.s.s.s.s.y.T w V V C C 6       y F ",
"{ r       8 C V C C V V Z U U U U U U U I Z w C C C C Z ! W C C C W ! Z w V V V C Z U U U U U U U U U I V V V V C C 6       e n ",
"{ y       8 C C C C C C Z R Z T I T I E I C I Z Z U Z U T Z U I I I Z I T Z V I Z T U Z I Z T Z I I U T Z C V V C C 6       e b ",
"{ y       8 C C C C C C E =.! ) E ( T ( I C ^ ) W _ Q ! U / ) Q ! *.^ ! Q I V ! I ) E ! ) Q ! E ! ! ^ ! Z C C C C C 6       e b ",
"{ y       8 C C C C C C E _ Q ( T ^ E Q Z C ! ! Q ( ! ! R ! / Q Q ^ ( ! ( T C ^ E ( W ^ / ! ( ! ^ ! ! ! Z C C C C C 6       e n ",
"{ y       6 C C C C C C Z Y Z Y A Y Z Z C C Z Z A Z Z A Y Z A A Z Z A A Y Z C Y Y Y Y Z Z Z Y A Y A A Y Z C C C C C *       y F ",
"{ y       O 5 6 6 6 6 6 6 6 6 6 6 6 6 6 6 6 6 6 6 6 6 6 6 6 6 6 6 6 6 6 6 6 6 6 6 6 6 6 6 6 6 6 6 6 6 6 6 6 6 6 6 * o       i F ",
"{ s                                                                                                                         k F ",
"{ G %                                                                                                                     > J K ",
"{ { M %                                                                                                                 > H L L ",
"{ { { B t e e p a a p y y y y y y i a a a r e e e a l l l l l k g g g p a a a c v v l y y y p a a g g g g x v v x y y k J L L L ",
"{ { { D b b b [ { { ] F F F F F F ] { { { m b b m  . . . . . . .} K K | { { { #.&.&.o.F F F { { {  .......#.&.&.@.F F F K L L L "
};
