/* XPM */
static char *b3379ede776c4f2d9e84096dc3649573IgLkbYpjqa3YAVrk[] = {
/* columns rows colors chars-per-pixel */
"50 50 145 2 ",
"   c #6FA43A",
".  c #72A73D",
"X  c #6EA142",
"o  c #71A545",
"O  c #74AB45",
"+  c #79AE46",
"@  c #73A648",
"#  c #75AB4A",
"$  c #7AAE4D",
"%  c #76B041",
"&  c #7DB246",
"*  c #77B049",
"=  c #7DB34C",
"-  c #7BAE51",
";  c #7AAB59",
":  c #7DB253",
">  c #7FB05D",
",  c #81B64E",
"<  c #85BB4E",
"1  c #82B554",
"2  c #85B955",
"3  c #89BD56",
"4  c #83B65A",
"5  c #85B95B",
"6  c #89BD5C",
"7  c #83B561",
"8  c #87B960",
"9  c #8BBE62",
"0  c #8FBF69",
"q  c #91BE6A",
"w  c #87C057",
"e  c #8DC255",
"r  c #8DC25D",
"t  c #8FC85E",
"y  c #90C752",
"u  c #93CA55",
"i  c #91C65E",
"p  c #93CA5D",
"a  c #98CE5C",
"s  c #8EC262",
"d  c #8FC168",
"f  c #92C564",
"g  c #95C964",
"h  c #94C864",
"j  c #96CA65",
"k  c #94C866",
"l  c #97CB66",
"z  c #97CC64",
"x  c #94CC67",
"c  c #94CA64",
"v  c #98CD63",
"b  c #98CD65",
"n  c #98CC67",
"m  c #98CD66",
"M  c #91C269",
"N  c #92C568",
"B  c #93C669",
"V  c #94C569",
"C  c #94C768",
"Z  c #94C76A",
"A  c #94C56C",
"S  c #93C669",
"D  c #96C869",
"F  c #96CA68",
"G  c #97CB69",
"H  c #95C86B",
"J  c #96C96A",
"K  c #97CA6B",
"L  c #95C86C",
"P  c #96CA6A",
"I  c #98CC68",
"U  c #99CD69",
"Y  c #98CC6A",
"T  c #99CD6B",
"R  c #9ACE6A",
"E  c #9BCF6B",
"W  c #98CB6C",
"Q  c #98CB6E",
"!  c #98CB6F",
"~  c #9ACB6F",
"^  c #99CC6D",
"/  c #9ACE6C",
"(  c #9BCF6D",
")  c #9ACD6E",
"_  c #9BCE6F",
"`  c #9CCE6F",
"'  c #99CD6B",
"]  c #97D164",
"[  c #9CD167",
"{  c #9CD06C",
"}  c #9ED26D",
"|  c #9CD06E",
" . c #9DD16F",
".. c #9ED06F",
"X. c #9ED26E",
"o. c #9FD36F",
"O. c #9DD16C",
"+. c #9ACD70",
"@. c #9CCF70",
"#. c #9CCF73",
"$. c #9BCD71",
"%. c #9FD170",
"&. c #9FD371",
"*. c #9ED172",
"=. c #9FD273",
"-. c #9FD074",
";. c #9ED175",
":. c #9DD172",
">. c #A1D56E",
",. c #A1D571",
"<. c #A0D472",
"1. c #A1D277",
"2. c #A2D475",
"3. c #A2D674",
"4. c #A3D775",
"5. c #A2D576",
"6. c #A3D677",
"7. c #A1D575",
"8. c #A4D874",
"9. c #A4D876",
"0. c #A5D977",
"q. c #A5D975",
"w. c #A8DD76",
"e. c #A3D479",
"r. c #A4D778",
"t. c #A6D77C",
"y. c #A3D67A",
"u. c #A6DA78",
"i. c #A5D87B",
"p. c #A6D97C",
"a. c #A7DA7D",
"s. c #A6DA7B",
"d. c #A9DD7B",
"f. c #AADC7B",
"g. c #A8D97E",
"h. c #A8DB7E",
"j. c #A9DC7D",
"k. c #AADD7E",
"l. c #ACDE7D",
"z. c #A9DC7C",
"x. c #ADE17F",
"c. c #AADD80",
"v. c #ABDE81",
"b. c #AADD81",
"n. c #ADE082",
/* pixels */
"z z t < < r c c  .,.=.5.l.=.2 o 1 =.p.~ N f 6 4 5 r I l =   & v l h 2 = 5 5 5 s N H 6 1 2 2 2 3 p p ",
"z z t 2 2 r c c  .0.0.0.d. .1 o 4 5.v.$.s 9 9 9 5 s H h = . & i l i 2 , 2 4 5 s f N 6 1 2 6 1 2 p p ",
"c c r 2 2 r c c I 0.0.=.5.` 5 $ 4 #.y.^ H N 9 5 4 s I h 2 , < i b r 2 2 6 2 5 N ^ ^ 6 1 6 r 6 r p p ",
"c c r 3 3 r c c  .d.0.H H H 6 4 5 N ~ ^ p.i.N : 4 N ^ l h i h h z r 1 2 6 1 5 H k.5.s 1 6 h l b p p ",
"c c r 6 6 r s s =.k.5.H C f 6 4 9 N C ^ v.g.C 4 5 N I l h z v p i r 1 1 2 1 5 H i.,.r 1 6 h h z c c ",
"c c r r 6 r r r s H ~ ~ ;.~ 9 5 9 N N f H N 9 9 5 s N i r r r 3 r r 6 6 r r s I ^ ^ h 6 h h i i r r ",
"c c s r 6 6 5 5 1 5 9 ~ g.y.A s 6 r 6 2 5 1 4 9 5 6 r 6 2 2 2 2 2 i h h I I l I N I l h b b i i 2 2 ",
"c c s r 6 4 4 4 6 4 4 L g.1.M 9 6 6 1 1 6 6 5 6 5 5 6 6 2 2 2 3 + r h h I I l h h H h r h h i i 2 2 ",
"2 : : 2 6 5 4 2 s $.$.;.t.1.A 9 r 2 2 6 f s s s N 6 5 2 = = , r r r r r r 6 6 H 5. .I  . .z i i 2 2 ",
"O O O : 4 4 4 4 $.y.i.i.g.y.A f r 2 2 r H H H H f 6 2 1 = + , r h r 2 2 2 1 5 I d.0.0.0.,.I h h 2 2 ",
"* * = 2 6 3 1 : ^ 5.y.5.p.1.C 9 6 2 2 s H ^ H N N 6 2 2 = O 1 h b r 1 1 6 5 6 H 1.,.5.0. .l h i 2 4 ",
"r r r r r 2 = O 5 N N H #.~ 9 5 r r r h H H N s N 6 6 6 1 $ 2 I h h 2 1 N #.K H 9 s H H l r r r r s ",
"] c i r r 2 O o = 5 6 s H C 5 1 r h l I I H C N N s s s 6 1 6 l r l 6 1 H v.y.N : 4 9 9 9 6 6 6 c c ",
"] c i c s 6 2 : 2 s s s C f 4 1 2 r h l H H N s 6 s f f r 6 6 r r l 5 $ s y.;.s 1 5 9 9 9 s s s s s ",
"] p t p c c r r h l h 6 s 6 1 = = 2 6 r l H s 5 5 s N N s h 6 1 : 6 4 : 5 M 9 9 5 6 6 5 9 N C N 6 6 ",
"] p t c c c c c I I s 5 5 2 : $ 1 1 2 6 H ^ s : 1 f H h h l 6 $ o $ 1 5 9 4 : 5 4 5 1 1 6 N H l 2 2 ",
"[ h c l l l l I I h h 6 5 6 : 1 1 1 2 s H H s 5 1 r l l I  .h 2 , 3 4 1 9 M 9 6 6 r e < e b l r 6 w ",
"w.,.[ l l [ ,.0.l r r 2 1 6 1 5 5 @ X 5 0.d.H 1 2 r l I >.8.[ t r h 6 9 +.t.1. .p p u y p b I l c c ",
"w.w.>.h h [ 0.d.h 6 6 1 2 6 1 5 6 @ X 5 i.x.H 1 6 h l I ,.w.,.z h h 6 9 $.c.t.,.b v a a z b I I I I ",
"b >.[ r 2 h [ [ l r r 6 6 s 2 5 5 6 s N H ~ s 1 6 6 5 r l I I h h h 4 1 s +.L H l p p p p r s s s s ",
"i h r = * 3 i p b h l h h l 2 2 6 y.n.~ 5 5 6 4 4 - # $ 1 5 6 r l h 5 : 8 9 9 s l c h h h 6 5 5 4 4 ",
"h p r = & 2 i z l h n l b b 2 1 6 y.v.H 4 5 9 5 5 $ # $ : 1 6 N l h 5 1 5 9 9 s C l l l h s 6 5 4 4 ",
"b h r r r r h b i 3 i h z b 3 2 6 f N f s N s 6 9 4 : 4 4 4 9 ~ N s 1 1 9 9 9 s 9 s s 9 f ~ ~ N 4 4 ",
"h c h [ [ b h h 3 , 3 r c b 3 2 4 : 1 s L L f s s 5 4 5 5 1 5 N L s 1 1 s M 9 9 1 5 4 4 s 1.p.1.4 2 ",
"b h l [ l h h h i , 2 i h i r 2 1 5 6 9 N L H s N 5 5 : 6 4 s M ^ N 5 1 5 s s 6 4 5 4 : 9 y.g.$.2 2 ",
"6 2 r h h l >.,.h < 2 h b z h r h 5 1 5 f s 9 5 6 : : - C $.$.9 6 5 9 9 6 1 1 5 9 9 8 4 9 f N s r r ",
"2 1 6 h h I 0.d.h 2 2 h l b I l I 2 $ 5 s 6 1 4 4 $ # # ;.n.p.5 4 5 s H 6 # O 1 5 4 4 5 5 4 5 6 l z ",
"6 5 s N N I 5.8.h 2 2 r i h l h h 6 2 6 6 5 5 6 6 : - - $.i.;.4 8 8 s s 2 $ = 5 5 4 8 8 6 6 r r h h ",
"N 6 9 9 6 H 5.i.^ h r r 6 6 6 2 6 h l r 2 2 r N h 4 1 : s 6 9 4 > 7 5 5 6 h h s 9 9 9 8 9 l h t r r ",
"N 9 6 4 4 N i.k.1.H N s 2 1 2 1 2 l I h 2 2 r l H 6 5 1 6 - 1 : ; 4 4 1 r [ I 6 4 8 8 4 6 l v t 6 6 ",
"+.C N 9 5 N =.^ H s s 6 1 2 6 2 r r r r 2 2 r l l 6 6 1 N s s 1 > 7 4 6 i z h 6 4 5 9 M N h p i 5 6 ",
"y.1.y.;.N f s 4 5 1 5 2 1 6 h h h 2 = 2 6 2 6 l N 6 5 1 =.i.=.4 4 4 4 6 r i h I ~ ~ 1.i.,.h e p 5 4 ",
"y.n.5.H H s 1 5 5 : 1 2 2 3 c l s 2 2 : 6 1 r s H 5 $ 4 =.k.#.4 4 1 4 6 r r h I K I ,.8.>.b p i 4 4 ",
"H I N l #.N 5 9 s 2 2 6 r r i r 6 : 4 : 6 2 s H H 9 5 6 ` 6.K 4 6 6 5 5 h ^ I r h l b } [ p r r 5 8 ",
"6 5 5 H 5.H 6 s 9 1 2 r h i e = : $ : : 6 : s W C f s s H ~ f 4 1 5 1 : l x.0.h 2 6 i b b h i h 9 9 ",
"2 2 6 l ^ H s s 5 : 5 h h h r = 2 # $ : 6 1 s C H H N N N N s 6 : 2 1 2 l d.0.l 2 3 r h l h h l 6 9 ",
"2 6 6 2 5 N #.=.N 6 s h r r h c s : $ : s 6 s s N s 6 6 s f f f r h C l l h h h h h l b l r 6 6 : : ",
"2 2 1 O o 6 p.v.1.H N r 2 6 [ 0.I : @ : I s r 4 4 1 : 1 5 6 s f l I ,.0.l 1 2 l h h l b l 6 2 2 # # ",
"6 1 1 $ @ 6 1.y.#.N N r 2 6  .w.:.: @ : :.C s 4 4 1 5 6 6 6 9 N h b 0.d.l 1 2 l h N H ^ H r 5 2 $ O ",
"r 1 2 6 1 5 N s N s N H h h >.w.4.4 : 6 i.:.W s N H ^ =.K f N K h b ,.0.l 1 1 r H I ^  .H r 1 1 : : ",
"2 2 2 2 5 5 4 1 9 9 N H H H =.i.=.6 : c a.a.:.W C 5.k.5.H N C C r [ d.d.I 1 1 H  .l 5.i.5.- # : 2 2 ",
"2 2 5 5 5 5 5 4 s 9 9 N ~ ^ =.=.:.6 : s =.=.W s f ^ 1.=.K C C H H  .=. .H 1 : h H h =.5.=.1 : 1 1 1 ",
"h h r 6 6 6 5 5 9 5 5 N 1.5.^ N s 4 : 4 s s 4 : : 5 f f 6 5 N =.1.^ s 6 5 $ # 5 h r I H I 1 1 : $ $ ",
" .l s 6 6 5 5 5 4 1 5 $.g.p.H 6 s 4 : : 4 4 : @ o : 6 6 - $ s i.g.^ 5 : - # $ 2 s r l s N 2 2 = # # ",
"b h N l N 9 5 5 5 4 9 L 5.=.N 9 s 6 4 4 6 6 4 : : 5 N N 6 5 s ^ $.H 5 1 1 $ - 6 r s H s l 6 6 1 = : ",
"h h ^ 0.y.^ s 9 9 8 5 5 9 6 5 6 : : $ : 5 6 6 6 s s N H #.^ 6 - - : : : 1 $ # 1 2 5 N r l 2 6 2 4 4 ",
"l h ^ i.p.#.N N 9 4 4 4 4 4 4 6 : @ o : 4 4 5 s f C N N ^ =.s # @ - - - : # # : 1 1 h h l 1 2 2 5 5 ",
"I c h I I h s f 9 8 5 9 9 9 6 s s = O 2 r 6 r H s H ~ s f ^ H 5 5 9 5 4 4 1 1 6 6 6 ^ ^ ^ 2 2 6 9 9 ",
"z t r + + & z c s 4 5 5 1 5 h c s O O = ] p z l c s 6 6 N h l ,.p.$.6 2 f n C N 9 f 1.y.1.5 2 6 s 0 ",
"z t r % % & z c s 4 5 6 1 3 i c s O o & ] p z h c s 6 6 N h z ,.i.$.6 1 f n h N 9 M e.t.1.4 5 6 q q "
};
