/* XPM */
static char *_493ac7cb1844dab92be1088253363ff4Shyvj7DJyhtpxZ6[] = {
/* columns rows colors chars-per-pixel */
"64 64 62 1 ",
"  c #71AF47",
". c #72AF48",
"X c #75B14B",
"o c #79B44E",
"O c #7CB84E",
"+ c #7BB452",
"@ c #7FB853",
"# c #80B757",
"$ c #82BC55",
"% c #82B759",
"& c #84B95B",
"* c #89BE5C",
"= c #87BA60",
"- c #8ABC63",
"; c #8EBD69",
": c #90BE6B",
"> c #86C055",
", c #89C357",
"< c #8DC45C",
"1 c #8FC85B",
"2 c #90C75D",
"3 c #92CA5C",
"4 c #94CB5F",
"5 c #8CC060",
"6 c #8DC160",
"7 c #8FC266",
"8 c #91C463",
"9 c #91C563",
"0 c #90C266",
"q c #93C764",
"w c #92C467",
"e c #92C860",
"r c #94CB61",
"t c #97CC63",
"y c #95C964",
"u c #97CC64",
"i c #99CD66",
"p c #90C168",
"a c #93C26B",
"s c #95C36E",
"d c #94C868",
"f c #96C96A",
"g c #97C86B",
"h c #97C96B",
"j c #9BCF6A",
"k c #98C96D",
"l c #9ACC6C",
"z c #9CCD6F",
"x c #9FD16F",
"c c #9AC871",
"v c #9CCC70",
"b c #9DCD71",
"n c #9FCD75",
"m c #9FD070",
"M c #A0CF74",
"N c #A1D272",
"B c #A3D374",
"V c #A4D377",
"C c #A5D379",
"Z c #A5D478",
"A c #A6D479",
"S c #A8D57A",
/* pixels */
"333<&&&ettjAAAAAAfX..fAAM:::-&&*ett$ .X3tt<%%%&&&*333*&&&&&%<333",
"333<&&&ettjAAAAAAfX..fAAM:::-&&*ett$. X3tt<%%%&&&*333*&&&&&&<333",
"333<&&&ettjAAAAAAfX..fAAM:::-&&*ett$  X3tt<%%%&&&*333*&&&&&&<333",
"333<***343jAAAxzxq+++qxxzccc;&&*ett<$$$334<%%%&&&-jjj*&&&<<<<333",
"333<---233iAAAt33<&&&<ttiACC0%%*ett4333333<&&&&&&7AAA7&&*3333333",
"333<---233iAAAt33<&&&<ttiAAC0%&*ett4333333<&&&&&%7AAA7%&*3333333",
"333<---233uBBBu34<***<eeuBBB0&&*err3333333<&&&&&&7VVV6&&*3333333",
"333<---*&&*---zBBb;;;-***----------*&&&&&&<<<23eeettt3<<3333<&&&",
"333<---*&&&&&*bAAM:::=&&&&&&=------*&&%%&%*333rrt43333333333*%&&",
"333<---*&&&&%&bAAn:::=&&&&&&=------*&&%%&%*333rrt43333333333*&&&",
">>>*===&%%*000MAAM:::=&&&***<666-=-%@@@***<<<<<<<eiiiiiiu333*&&&",
"...+&&%%%%7CAAAAAM:::=&&*rtt3332&&&+..X<33<&&&&&&7AAAAAAN333*&&&",
"...+&&&%&&7AAAAAAM:::=&&*rtt3332&&&+..X<33<&&&&&%7AAAAAAN333*&&&",
"XXX+**&&&%7CCCCAAn:;;=&&*rtt3332*&*+..X<33<&&%***7VCCCCCN333*&&&",
",,,<;;-+XX#pppytt9***<<<2tttqp00;;;*@@#<33<&&*kbbk---pssp---<<<<",
"3339::;X  +---233<%%%<333tttq::::::-&&&233<&&*bAAk%%%;::;---<333",
"3339::;X  +---233<%%%<333tttq:;;:::-&&&333<&&*bAAk%%%;::;---<333",
"3339007@OO#---<<<<#@@<<<<ttt7;-;000-***,,,*&&*fbbf%%%-;;;666<<<<",
"33333333333333&&&%+++%&&*rtt*%%&333333<X..o%%%&**&&&&&&&*rtt*&&&",
"33333333333333&%&%+++%&&*rtt*%%&3333331X..o%%%&&&&&&&&&&*rtt*&&&",
"33333333333333*%&%+++@&&*rtt*%%&3333331X..o%%%&&&&&&&&&&*rtt<&&&",
"NNNi333xNNf66-*%&&%%%+XX#mNN7%&&344iNNz<,,*==-fbcf2<<<<<<ttte<<<",
"AAAz333BAAb---*&&&&&&X  @VAAq&&*ettxAABt33<--;MAANttt3333ttttttt",
"AAAx334BAAb---*&&&&&&X  @VAAq&&*rttxAAVt33<--;MAANttt3333ttttttt",
"NNNi<<<zNNk---***&&&&@@@*bbb7&%&<<<ybbb433<---cMMzttt33333eeeeee",
"333<++@<333333333<&&&kVVb****%%%X.X@***233<%%%---63334tt2&&&&&&&",
"333>+++<333333333<&&&cAAb*&&&%%%...+&&&233<%%%---63334tt2&&&&&&&",
"333>+++<333333333<&&&cAAb*&&&%%@...+&&&233<%%%---63334tt2&&&&&&&",
"333<<<<333<**<344<&&%600q<<<----@@@@%%&233<%%%-;;;***<<<6fkk-&&&",
"3334ttt333<&&&2tt2&&&&&%*rttq::;*&&%%%&233<%%%;::;&%&&&%-CAA0%&&",
"3333ttt333<&&&2tt2&&&&&&*rttq::;*&&%%%&233<%%%;::;%%&&&&-CAA0%&&",
"22234444rt<&&&2tt2***&&&*eee0;;;%%%&***<23<*&*-;;-%&&&&&-MBB0&&*",
"&&&<334NVAk&&&2ttreee*&&*---***%X..-BBM*&&-;;;+.X+&&&&&&*;;;<333",
"&&&<333BAAk&&&2tttttt*&&&---*&&@.. 6ACB-&&-::;+  o&&&&&&*---<333",
"&&&<334BAAk&&&9tttttt*%&*---*&&%X. 6AAB-&&-::;+  X&&&&&&*---<333",
"---*<<<BAAz<<<<<<<<<<<<<*****<<*@++*ffq%@@&---*$$$&&&****666<<<<",
":::-&&*bAAx333*%&&&&&<33<&&&<333&&&&&&%+++@&&&ett2&&&----3336---",
":::-%&*bAAx333*&&&&&&<33<&&&<332&&&&&&%+++@&&&ett<&&&----3336---",
"ppp;&&*bBBz333*&&&&&&<33<&%%<332&&&****+++@&&&3tt2&**-;;63336---",
"BBBleee****&&&&&&*232*&&&%%%<332&%%qBBb*%%%&&&<333eeezBBz333****",
"AAAxttr*&&%%%%&&&*333*%%%&&&<332&%%fAAB*%%%&&&<333tttNAAN333*&%%",
"AAAxttr*&&%%%%%&%*333*%%%&&&<332&%%fAAB*%%%&&&<333tttNAAN333*%&&",
"kkkyttr---*%%&*<*<<<<#@@@&&&<333--=qxxj*%%%&&*yjjy999jxxj333****",
"&&&<ttrp::-&&&<33<%%%@+++&&&<ttr:::q333&%%%&&*bAAb---9ttr333----",
"&&&<ttrp::-&&&<33<%%%@+++&&&<ttr:::q333&%%%&&*bAAb---9ttr3336---",
"&&&<e3ep::;&&&<33<&&&@+++&&&<rre:;;9332&&&&***bVVb---ettr3336---",
"&&&@OO@kBBl<<<*&&6bbb#..O<<<<******----<<<ybbb7--62<2rtte---@XXX",
"&&&+  XbAAx333*&%6AAA# .O333*%&&&&&*---333jCAC-%%*3334tte---+ ..",
"&&&+  XbAAx333*%%-CAC#  O333*%&&&&%*---333jAAC-&&*3334tte---+ ..",
"&&&@oo+fkkf999<**qCAC*XX@uii<***7776666333jAAV-%%*333ijjy*&&@XXX",
"%&&&&&&&&&-:::933iAAA7%&-VAAj33rVCCj333333iAAV-%%*tttNAAl+++@%%%",
"%&&&&&&&&&-:::933iAAA7&&-CAAj33tBCCj333333iAAV-%%*tttNAAl+++@%%%",
"%%%%&&&&%%=:;;933iCCC7&&-BCCi33rBCCj333333jCCB*%%*rttNAAl+++@%%%",
"<<<*---*%&&**=kNNbsss-&&*-66#OO@7pp-***zNNf66-+XX@pppyui9%%%+XXX",
"333<---*&&&&&*bAAM::;=&&&&&&o  X=--*%%*BAAf%&%X  @:::933<&&&o ..",
"333<---*&&&&&*bAAM:::=&&&&&&o  X---*%%*BAAk&&&X. @:::933<&&&o ..",
"3339000-***&&*fbbk;;;&@@#&&&@++@---****fkl7%%%X..+;;;233<&&&+XXX",
"333jVVBs;:-&&&******&o..X&&&-;;:rrrrrr3OXXX+++X..o&**<33<&&&&&&&",
"333jAACs::-&&&&&&&&&&o..X&&&-:;prttttt3X..X+++X..X&&&<33<&&&&&&&",
"333jAACs::-%&&&&%&&&&o..X&&&-;;prttttt3X..X+++X..X&&&<33<&&&&&&&",
"333<***<99<&&&&&%&<<<O..O<<<9qqq6669333qqq6@@#$>>*--;kxxf*&&=---",
"333$  X<33<&&&&&%*333O..Oettttte---<334VASk&&&<339:::MAAb*&&-;::",
"333$..X<33<&&&&&%*333O..Oettttte---<334BAAf&&&<339:::nAAb*&&-:::",
"333$..X<33<&&&&&%*333O..Oettttte---<334BAAf&&&<339:::nAAb*&&-;::"
};
