/* XPM */
static char *_018ca45bfac4dc5b67724c6514ea91dBFAccyfCCNaw5tBv[] = {
/* columns rows colors chars-per-pixel */
"64 64 145 2 ",
"   c #342715",
".  c #372A16",
"X  c #392C17",
"o  c #372C19",
"O  c #3A2E1A",
"+  c #3E311D",
"@  c #3F3321",
"#  c #41331E",
"$  c #49361F",
"%  c #4A391F",
"&  c #423521",
"*  c #493721",
"=  c #463924",
"-  c #4B3C25",
";  c #4B3D28",
":  c #513F26",
">  c #4F4027",
",  c #4E402A",
"<  c #514127",
"1  c #54432A",
"2  c #59472B",
"3  c #5D4A2D",
"4  c #5E4B31",
"5  c #624E2E",
"6  c #64502F",
"7  c #69522F",
"8  c #624E31",
"9  c #665232",
"0  c #6A5534",
"q  c #6D5836",
"w  c #6B5738",
"e  c #6E5939",
"r  c #715734",
"t  c #715A36",
"y  c #705739",
"u  c #735C3A",
"i  c #7A5F3E",
"p  c #776037",
"a  c #75603F",
"s  c #7C643F",
"d  c #7D653E",
"f  c #7C623E",
"g  c #7E5F42",
"h  c #7B6240",
"j  c #7C6140",
"k  c #7D6140",
"l  c #7C6240",
"z  c #7E6240",
"x  c #7C6341",
"c  c #81653F",
"v  c #81653D",
"b  c #876B3E",
"n  c #866A3E",
"m  c #886C3F",
"M  c #8A6C3F",
"N  c #92713F",
"B  c #826440",
"V  c #806741",
"C  c #826740",
"Z  c #826541",
"A  c #876E40",
"S  c #866D44",
"D  c #866A43",
"F  c #896D40",
"G  c #886E42",
"H  c #8B6E42",
"J  c #8A6F42",
"K  c #8B6F47",
"L  c #8C6E44",
"P  c #8C6D46",
"I  c #8C6F46",
"U  c #8B6E43",
"Y  c #8C6E48",
"T  c #906F45",
"R  c #906F48",
"E  c #8E7145",
"W  c #8D7046",
"Q  c #8E7145",
"!  c #8C7048",
"~  c #8E7148",
"^  c #8F7249",
"/  c #8E7249",
"(  c #927146",
")  c #937546",
"_  c #947444",
"`  c #957444",
"'  c #957544",
"]  c #957545",
"[  c #967644",
"{  c #947546",
"}  c #977646",
"|  c #947445",
" . c #987647",
".. c #987747",
"X. c #997545",
"o. c #977847",
"O. c #997947",
"+. c #997947",
"@. c #907348",
"#. c #947549",
"$. c #967748",
"%. c #96744B",
"&. c #97774C",
"*. c #957649",
"=. c #987748",
"-. c #99774B",
";. c #9A774A",
":. c #997749",
">. c #977849",
",. c #95784A",
"<. c #97794B",
"1. c #97794A",
"2. c #997948",
"3. c #9A7949",
"4. c #9B7949",
"5. c #9A794B",
"6. c #997A4B",
"7. c #987A4B",
"8. c #9B7B4A",
"9. c #9A7A4B",
"0. c #9B7B4B",
"q. c #9D7A4A",
"w. c #9C7C49",
"e. c #9D7D4B",
"r. c #99784D",
"t. c #997A4C",
"y. c #9B7B4C",
"u. c #9A7A4C",
"i. c #98794F",
"p. c #9C7B4E",
"a. c #9B7C4D",
"s. c #9C7C4C",
"d. c #9C7C4D",
"f. c #9C7D4D",
"g. c #9E7D4D",
"h. c #9D7D4F",
"j. c #9D7E4E",
"k. c #9A7B4B",
"l. c #9E7F50",
"z. c #A17E4E",
"x. c #A17F50",
"c. c #9E8051",
"v. c #A0814F",
"b. c #A5804B",
"n. c #A28152",
/* pixels */
"= = = ; 0 0 0 0 q q 0 u 9.u.j.^ + + O & w q w u { { -.m & & & = 9 9 9 9 0 0 0 9 9 0 9 0 z f f f w w w w z f d f 0 0 9 t j.j.e.u.",
"= = = - 0 0 0 0 q q 0 u 9.9.j.K + + O & w t q u ) { ..b & & & = 9 9 9 6 0 0 0 9 9 0 9 0 z f f f w w q w z f d f 0 0 9 t j.j.e.u.",
"= = = - 0 0 0 0 w q 0 u j.j.v.^ + + O & w q 0 u $.{ 9.H # & + & 9 9 9 6 0 0 0 0 9 0 9 0 f f f f w w w u z f d f 0 0 0 t j.j.e.u.",
"= = = - 0 0 9 0 q q q u W I @.C + + O = u u u p S A H d = = & ; q q q 0 8 5 8 5 9 0 9 0 C c C f 0 0 0 w z f f f 9 9 5 q y.9.9.&.",
"+ + + = 9 6 6 9 w w u 0 X O O O + & O ; -.,.u.H $ & & % 9 9 9 w ,.,.u.I # + O & 9 0 9 t u.9.j.^ - - - 1 j f f u - ; - 2 $.{ { ( ",
"+ + + & 9 6 6 9 w w u 9 o . . O # & + ; -...q.H & @ @ = 9 7 5 q O.O.e.I # + O & 9 0 9 t 9.9.a.W ; ; - 1 f f d u ; ; - 2 $.{ { ( ",
"+ + + & 9 9 6 9 w w u 9 . o . O + + O - ,.-.9.H # # # = 9 9 9 q &.9.u.H + + + # 0 0 9 t u.9.j.^ ; ; - 1 j f d u ; ; - 2 { { { ( ",
"+ + + & 8 9 8 9 w w w 9 O O O O & = # < ,.-.9.H & & & = 9 9 9 q 9.9.q.H + + + & 0 0 9 t &.$.&.K ; ; - < j f z u ; ; - 2 $.{ { ( ",
"O O O # 4 3 4 5 6 6 9 3 # & & = 9 9 9 q -.-.8.L + + + & 9 9 9 q ,.9.9.H + O + & 9 0 9 0 f f d u ; ; - < j f z u ; ; - 2 9.9.9.( ",
"O O O # 4 8 8 8 8 5 9 3 & & & = 9 0 0 t 9.-.9.I + + + & 9 0 9 q ,.$.9.H + O O & 9 0 9 0 f f z u ; ; - < j z z u ; ; - 2 u.9.9.( ",
"O O o + 4 5 5 5 5 5 9 3 & & & = 9 0 9 q ,.9.q.L + + + & 9 0 9 q ,.9.9.H + O O & 9 0 9 0 f f j u ; ; - < f g z u ; ; - 2 u.9.9.( ",
"# # # & 4 3 3 3 5 5 6 3 & & & = 0 0 0 t #.$.,.H + + + & 9 9 9 q 9.$.9.H + O O & 9 0 9 0 c c C u - - - < c C C u ; - = 1 &.$.,.R ",
"w w w 9 = = = - 8 5 6 3 # & + - j z z f z f d u + # + & 9 0 9 u 9.$.9.H + O O & 0 0 9 t $.-.9.H # + O ; 8.u.j.W & & @ ; z f f z ",
"w w w 0 = = = ; 5 5 6 3 # & # - j f f f f f z u + + + & 0 0 9 q ,.{ 9.H + O O & 9 0 9 t ,.-.9.K + + O - j.u.j.W & & & ; f f f f ",
"w w w 9 = = = ; 5 5 6 3 + @ # - j f f z f f z u + + O & 0 0 9 w 9.9.q.H + O O & 9 0 9 t ,.$.9.K + + O - u.u.j.W & & & ; z f f f ",
"q q w 9 = = = ; 5 5 6 3 & = & ; j f f f f f z u & & & = 9 9 9 q $.( $.D + O + & 9 0 9 t 9.9.9.K + + O - u.u.j.W & & @ ; z f f f ",
"0 0 0 9 & & @ = 0 q 0 0 9 9 9 0 f f f f f f f f 0 0 0 0 9 9 9 0 u u u w & & @ - 0 q 0 u 9.9.e.K + + O - 9.9.e.I + + O = f f z f ",
"0 0 0 9 & & @ = q q w 0 0 9 9 0 f f f f f f f f q w q 0 9 9 9 0 w w w 0 & & & - 0 q 0 u 9.9.e.K + + O - 9.9.e.L + + O & f f z f ",
"0 0 0 9 & # @ = w q w 0 9 9 9 0 f f f f f f f f q q q 0 9 9 9 0 w w u 0 = & & - 0 0 0 u 9.9.j.I + + O - 9.9.j.L + + O & f f z f ",
"0 0 0 9 & & & - w q q 0 9 9 9 0 z C d d j f f a 0 0 0 0 9 9 9 0 w w w 9 & & & = 0 0 0 u 9.9.8.K + + O - ,.$.9.H O + O & j f f u ",
"w q q 0 3 3 3 4 w q q 0 9 9 9 q u.u.u.@.0 0 0 9 9 9 9 9 0 0 0 0 0 0 q 9 + + + & 0 0 0 t L L ( c + + + - d f c u & # @ = 9 7 0 8 ",
"q q q 0 8 4 3 5 q q w 0 9 9 9 q u.9.y.#.7 9 0 9 9 9 9 9 0 0 0 0 0 0 q 9 + + O & 0 0 9 t M M ( c + + O - j z f u & # @ = 9 9 0 8 ",
"q q w 0 4 4 3 5 w q w 0 9 9 9 q u.9.a.#.0 0 0 9 9 9 9 9 0 0 0 0 0 0 w 9 + + O & 9 0 9 q L Q ( c # + O - d z d u & & + = 9 9 0 9 ",
"0 0 q q 5 8 3 9 w 0 0 w 9 9 9 q u.9.9.) 0 9 0 9 9 9 9 9 9 9 9 0 t t u 0 + + O & 0 0 0 t H M L v + + O = d j z u # & @ = 0 0 0 9 ",
"0 0 0 0 j f f u : ; ; 1 0 q 0 u $.{ 9.Q 5 5 5 5 0 0 0 6 # # O - W L ( c + + O & f f z u 3 2 3 1 . o . # d z z u + + + = w q w 0 ",
"0 0 9 0 f f d u ; - - < q w 0 u $.$.9.W 5 5 5 5 0 9 0 8 O + O = ( N _ n + + X * d f f u 1 2 2 1 . . . # j f z u + + O = w q w 0 ",
"0 0 9 0 f z x u ; ; - < q q 0 u $.{ 9.W 5 5 5 5 9 9 0 8 + O O = W ( ( v + O O & f f f u 2 2 3 1 . o   # x f z u + + + = w q w 0 ",
"0 0 9 q B c C u - - - < q q 0 u ,.{ 9.Q 5 3 3 5 0 q r 6 + + O = ( ( { b O O O & f f f u 2 2 2 < O O o $ z f z u # + + = w q w 0 ",
"0 0 0 u &.,.u.H & @ + = q 0 0 u u.9.j.Q # # + - &.-.9.K # & # ; ,.9.y.H O O o & f z f u ; ; ; < 9 9 5 9 z f z u # # + = w q w 0 ",
"0 0 0 u 9.9.a.L + + + & 0 q 0 u u.9.j.W + + O - u.u.e.W & & # : u.9.y.H O O o & f f f u - ; ; < 9 9 9 0 f f z u # # + = w q w 0 ",
"0 q 0 u 9.9.a.I + + + & w q 0 u a.u.j.W + + O - u.u.j.W & & # : u.9.j.I O O o & f f f u ; ; ; < 9 9 9 0 z f z u # # + = w q w 0 ",
"0 0 0 u 9.9.a.I + + + & w 0 0 u u.9.j.W + + O - $.$.9.K & & # : $.{ 9.H O O O & z f d u - ; ; < 9 9 9 0 f f z u # + + = w w w 0 ",
"0 0 0 t ,.O.8.L + + + = u u w u { { { b & & @ - q q q 9 # & + = q q q 9 & & # ; ( ( | b + + O & 0 0 0 0 q q q 9 # + + = f f f f ",
"0 0 9 t ,.O.8.L + + + = u u w u ) ( { b & & @ = 9 9 0 8 # & + = 0 0 0 8 & & & ; | ( { b + O O & w q q 0 w 0 q 9 # + + = j f f f ",
"0 0 9 t ,.O.9.L + + + = u u w u { { ..b & & + = 0 0 0 9 # @ + & 0 0 0 8 & & & ; ( ( { b + O O & w q q 0 w 0 q 9 # @ + = f f f f ",
"0 0 9 u 9.9.a.L & # + = u u w u ( ( ) D % = = - 9 9 9 8 # & # = 0 0 0 8 & & + ; | ( { b + + O & 0 0 0 w q q q 0 # # + - j f f f ",
"0 0 9 u a.9.j.W = = = ; 0 0 0 0 t u u u Q Q W v * = & - 9 9 9 9 0 0 q 8 O O o = $._ { m & & & - 0 0 0 u @.( ) M & # @ - z f f f ",
"0 0 9 u a.e.j.( = = = - 9 9 9 0 w w w u $.X...m & = @ - 0 0 q q 0 0 0 8 O O . = $.{ -.m & & & - 0 q 0 t $.....M & & @ - z f f f ",
"0 0 9 u 8.e.j.( = = = - 9 9 9 9 q q q u ) _ $.D & & & = 0 0 0 0 0 0 q 8 O O . $ $.{ $.m & & & - 0 0 0 u ) | $.F & # @ - j f f f ",
"9 0 9 q 7.u.a.^ = = = - 9 9 9 9 q q 0 u ) _ { M & & & - 0 0 0 0 0 0 0 8 X O . % { { 9.m & & & - 0 0 0 u { _ o.F & # @ - f f f f ",
"- - = 1 d d d u @ & & = 0 0 0 0 0 0 9 t { { ,.F O O O # 9 6 9 5 & & & & 3 3 2 9 l.j.n.W # & + = 0 0 0 u 9.9.j.I & & & : @.#.@.T ",
"= = & ; f j h u @ & @ = 0 0 0 0 0 0 9 q { { ,.F O O O # 9 6 9 3 + + + & 8 5 3 0 n.l.n.#.# & + = 0 0 0 u u.9.j.W & & & < $.{ { ( ",
"= = = , d z z u # & @ = 0 0 0 0 0 9 9 t { { ,.F O O O # 8 5 9 3 + + O & 4 8 3 9 c.j.n.) # & + = 0 0 0 u 9.9.j.W & & = < { { { ( ",
"= = = ; d z z u # & @ = 0 0 0 0 0 0 9 t { { ,.F O X X # 7 7 0 5 + + O & 8 8 3 9 l.j.n.( # & + = 0 0 0 u u.9.j.W & & = < $.{ { ( ",
"+ + O = d z z u # + + & 9 0 9 0 w w w u 9.9.a.L & & @ ; #.$.&.D X o o + 4 5 3 9 j.j.n.W + + O & w q 0 u ,.{ 9.H + + O - u.9.8.#.",
"+ + O = d z z u # + + & 9 9 9 0 w w w f 9.9.j.I & & @ < u.9.j.K . o . + 4 5 3 9 j.j.x.W + + O & w q 0 u $.{ 9.F O + O - u.u.a.#.",
"+ + O = f j z u # @ + & 9 9 9 0 w u w u 9.9.a.I & & @ < u.9.j.K X o . + 4 5 3 9 j.j.x.W + + O & w q 0 u ,.{ 9.H + + O - u.u.a.@.",
"+ + O = d z z u # + + & 9 9 9 9 w w w u 9.9.a.W & & @ : 9.9.8.K O O o + 4 5 3 9 j.j.x.W + + O & w q 0 u { { ,.H + + O - u.u.a.@.",
"O O O = ,.$.9.K O O o # 9 9 9 9 0 q 0 u 9.9.a.L O O o # u t u 0 # + + & 8 6 5 q ,.$.9.H + O O & 0 0 0 0 7 7 7 5 # & @ ; 9.9.9.W ",
"O O o = y.9.e.I O O o # 9 9 9 9 0 0 0 u 9.9.a.L O . . # 0 0 0 8 # + + & 9 7 6 q { { O.H + O O & 0 0 0 0 5 5 5 2 # & @ ; $.-.,.W ",
"O O o - 9.9.e.L O O o # 9 9 9 9 0 0 0 u 9.9.j.L O X . # 0 0 0 8 # + + & 9 7 5 q { $.O.H + O O & 0 0 0 0 5 5 5 3 # & @ ; 9.9.9.W ",
"O O O = ,.u.j.K O O o # 9 9 9 9 0 0 0 u &.,.a.H . O . # 0 0 0 9 # & + * 8 6 5 0 $.{ O.S O O O & 0 0 0 0 5 5 6 3 $ # + : $.$.$.I ",
"& & @ - u u u w 3 4 4 3 0 0 q 0 0 0 9 q c c C p - - - > w w w q 0 0 0 9 8 5 5 6 q q r 9 + + O & 0 0 0 t W I L Q ^ ^ #.S * & = $ ",
"& & & - w w q 0 5 3 4 8 q q w 0 0 0 9 0 f f j u ; ; - < q w w w t t t q 5 5 5 5 9 9 9 3 + + O & 0 0 0 t $...| ..z.j.b.W o o . o ",
"& & & = w w q q 3 4 4 8 q q q q 0 0 0 0 f f z u ; ; - < q w w w w w w 0 5 5 5 5 0 9 0 5 + + O & 0 0 0 u ) _ _ ) a.u.z.I O O O O ",
"& & & = w q w 0 5 5 5 8 q w w 0 0 0 9 0 z f d u ; - - < w w w w w y u q 5 5 5 6 0 7 0 5 + + O & 0 0 0 q ) | ( _ y.u.e.W O O O O ",
"O O O # 0 0 9 q W I ( C = = & ; 0 0 0 q f f d u ; ; ; - $ $ $ < Q H Q D 9 9 0 q ^ @.$.V O O O & 9 9 9 0 C c c u - = % : 8 5 5 3 ",
"O O o # 9 0 9 q -...4.H # @ + = 0 0 0 q f f z u - ; ; - + + O - ( ( | L 0 0 0 t &.-.q.H O O O # 9 9 6 9 j j d u O O o # 0 0 0 9 ",
"O O O # 0 0 9 q $.{ O.H # & + = 0 0 0 q j f f u ; ; ; - @ @ + - ( ( ( L 7 0 9 q ,...4.H O O O # 9 9 9 0 z f d u + @ + # 9 9 9 8 ",
"O O O # 0 0 9 q ,.{ 9.H # @ + = 0 0 0 w j f d u - ; ; - & @ O - ( ( ( K 0 0 9 t -...9.K O O O # 9 6 6 0 j f f u # + + # 9 0 0 6 ",
"2 2 2 4 9 0 9 0 z z C u # + + & 9 9 9 9 q q q 0 9 9 6 3 # & + * w q q q w 0 q q q q u 9 . o . + 9 9 9 9 0 q q 0 5 5 3 8 i f f u ",
"8 8 8 8 0 0 9 0 f f f u # + O & 9 6 6 6 0 0 0 9 0 0 0 9 # & + = 9 0 0 0 q q w 0 9 9 9 3 . . . + 9 9 9 9 0 0 0 0 9 0 9 0 z f z f ",
"4 4 4 8 0 0 9 0 f z d u # + + & 9 6 6 6 0 0 0 0 0 9 0 8 # & + = 0 0 0 0 q q w 0 9 9 0 8 . . . + 9 9 9 9 0 0 0 0 9 9 8 9 f f f f ",
"4 4 4 8 0 0 9 0 f z d u # + + & 9 6 6 6 0 0 0 0 0 9 0 8 # & + = 0 0 0 0 q q w 0 9 9 0 8 . . . + 9 9 9 9 0 0 0 0 9 9 9 0 f f f f "
};
